<?xml version="1.0" encoding="UTF-8"?>
<svg id="Layer_1" data-name="Layer 1" xmlns="http://www.w3.org/2000/svg" width="1000" height="1000" version="1.1" xmlns:xlink="http://www.w3.org/1999/xlink" viewBox="0 0 1000 1000">
  <defs>
    <style>
      .cls-1 {
        fill: #576245;
      }

      .cls-1, .cls-2, .cls-3, .cls-4, .cls-5, .cls-6, .cls-7, .cls-8, .cls-9, .cls-10 {
        stroke-width: 0px;
      }

      .cls-2 {
        fill: url(#linear-gradient);
      }

      .cls-3 {
        fill: #061d02;
      }

      .cls-4 {
        fill: #51461b;
      }

      .cls-5 {
        fill: #815539;
      }

      .cls-6 {
        fill: #fdf3c4;
      }

      .cls-7 {
        fill: url(#linear-gradient-2);
      }

      .cls-8 {
        fill: #547e85;
      }

      .cls-9 {
        fill: #1d1506;
      }

      .cls-10 {
        fill: #6b6019;
      }
    </style>
    <linearGradient id="linear-gradient" x1="499.1759338" y1="610.2441101" x2="499.1759338" y2="182.6885681" gradientUnits="userSpaceOnUse">
      <stop offset=".5307263" stop-color="#e6be76"/>
      <stop offset=".7346369" stop-color="#c1855c"/>
      <stop offset="1" stop-color="#642f23"/>
    </linearGradient>
    <linearGradient id="linear-gradient-2" x1="249.0278015" y1="477.1073218" x2="749.0881082" y2="477.1073218" gradientUnits="userSpaceOnUse">
      <stop offset="0" stop-color="#355561"/>
      <stop offset=".3" stop-color="#355561" stop-opacity="0"/>
      <stop offset=".7" stop-color="#355561" stop-opacity="0"/>
      <stop offset="1" stop-color="#355561"/>
    </linearGradient>
  </defs>
  <path class="cls-5" d="M228.0276794,620.3406677V189.0216483c0-7.9772916,6.4668726-14.4441641,14.4441641-14.4441641h188.370289c21.7631836-8.5546875,44.7299805-12.8891602,68.3339844-12.8891602,23.6035156,0,46.5703125,4.3344727,68.3339844,12.8891602h188.3693124c7.9772916,0,14.4441641,6.4668726,14.4441641,14.4441641v431.3190195l-271.1474609,10.9199219-271.1484375-10.9199219Z"/>
  <g>
    <path class="cls-2" d="M710.9907532,195.5774231h-147.5825806c-19.7582397-8.2988281-41.4586182-12.888855-64.2322388-12.888855s-44.473999,4.5900269-64.2322388,12.888855h-147.5825806c-21.1708984,0-38.333313,17.1624146-38.333313,38.333313v366.2592773l250.1481323,10.0740967,250.1481323-10.0740967V233.9107361c0-21.1708984-17.1624146-38.333313-38.333313-38.333313Z"/>
    <g>
      <g>
        <path class="cls-6" d="M702.2129822,297.7996521c-28.6618042-1.1166992-43.0280151-.3631592-46.9420776-.0887451.5189209,1.2442017,1.024292,2.4955444,1.5144043,3.7545776,8.1611328-.338501,33.3988037-1.3325195,48.4276733-1.3325195,17.2964478,0,30.7419434-1.0137329,44.111084-2.1694946v-.869873c-6.506958.6316528-22.0275269,1.6833496-47.111084.7060547Z"/>
        <path class="cls-6" d="M661.4145813,315.0572205c.1270752.4312744.2590942.8604126.3827515,1.2931519l20.1934204-.5507202-20.5761719-.7424316Z"/>
        <path class="cls-6" d="M664.7333069,328.2441101h84.5907593v-4.444458l-85.4247437.6588135c.2928467,1.2562256.5690308,2.5188599.8339844,3.7856445Z"/>
        <path class="cls-6" d="M749.3240662,285.0229797v-4.5509644c-12.8242188.0389404-65.3805542.3463135-96.333313,2.7720947,11.3516846,1.7230225,83.7108765,1.7817993,96.333313,1.7788696Z"/>
        <polygon class="cls-6" points="749.3240662 310.9152527 749.3240662 305.9126892 668.3611145 307.8737488 749.3240662 310.9152527"/>
        <rect class="cls-6" x="638.4352112" y="259.3551941" width="110.888855" height="3.666687"/>
        <path class="cls-6" d="M654.1388855,205.7996521h50.9629517c21.6296387,0,35.7037354,10.5184937,39.555603,21.9259033l1.2037354,1.2963257h-143.0109863c1.1990967.9358521,2.3876343,1.8845825,3.56073,2.8518677h142.0983887l.7846069.8449707c-.6313477-20.617981-17.5320435-37.1412964-38.3031616-37.1412964h-47.2522583l-35.0810547,8.7407227s12.888855,1.4815063,25.4814453,1.4815063Z"/>
        <path class="cls-6" d="M650.2129822,242.0218811c-.555542,0,20,2.555542,38.888855,2.555542h60.222229v-3.6694336c-22.956604-1.192688-98.5714111,1.1138916-99.111084,1.1138916Z"/>
        <path class="cls-6" d="M733.6574402,272.0218811c-51.8218384-2.4476318-81.5056152-1.946228-92.7920532-1.5637207.4674683.7183838.9313354,1.4390869,1.3881226,2.164917,9.3597412.3022461,64.5114136,1.9358521,91.4039307-.6011963Z"/>
        <path class="cls-6" d="M372.0690613,251.1844788c.7042236-.8051758,1.4113159-1.6077271,2.1303711-2.399292l-44.2086792.6811523,42.0783081,1.7181396Z"/>
        <path class="cls-6" d="M410.7113953,218.4336853l-125.0169678,1.7363281s101.1142578,1.225647,120.0639038,1.4472656c1.631958-1.0883789,3.2819824-2.1513062,4.953064-3.1835938Z"/>
        <path class="cls-6" d="M356.0983582,272.6230774c.4567871-.7258301.9206543-1.4465332,1.3881226-2.164917-11.286438-.3825073-40.9702148-.8839111-92.7920532,1.5637207,26.8925171,2.5370483,82.0441895.9034424,91.4039307.6011963Z"/>
        <path class="cls-6" d="M336.5545349,316.3503723c.1236572-.4327393.2556763-.8618774.3827515-1.2931519l-20.5761719.7424316,20.1934204.5507202Z"/>
        <path class="cls-6" d="M433.8728943,206.4911194c20.0942993-8.4578247,42.1542969-13.1359253,65.3030396-13.1359253s45.2087402,4.6781006,65.3030396,13.1359253c31.0377197-.3887329,47.6629639-3.1652832,59.5858765-8.098877.2396851,0,7.2436523-1.4649048,13.6470337-2.8148193h-74.3037109c-19.7582397-8.2988281-41.4586182-12.888855-64.2322388-12.888855s-44.473999,4.5900269-64.2322388,12.888855h-74.3037109c6.4033813,1.3499146,13.4073486,2.8148193,13.6470337,2.8148193,11.9229126,4.9335938,28.5481567,7.710144,59.5858765,8.098877Z"/>
        <path class="cls-6" d="M418.7550354,213.759552c1.499939-.815979,3.017395-1.6029663,4.5441895-2.3743286-6.3843384-.1296997-20.4641113-.1680908-40.789978,1.1551514,9.3186035,1.2975464,28.7196045,1.2801514,36.2457886,1.2191772Z"/>
        <path class="cls-6" d="M624.1524353,248.7851868c.7190552.7915649,1.4261475,1.5941162,2.1303711,2.399292l42.0783081-1.7181396-44.2086792-.6811523Z"/>
        <path class="cls-6" d="M575.0526428,211.3852234c1.5267944.7713623,3.0442505,1.5583496,4.5441895,2.3743286,7.5261841.0609741,26.9271851.0783691,36.2457886-1.2191772-20.3258667-1.3232422-34.4056396-1.2848511-40.789978-1.1551514Z"/>
        <path class="cls-6" d="M712.6574402,220.1700134l-125.0169678-1.7363281c1.6710815,1.0322876,3.321106,2.0952148,4.953064,3.1835938,18.949646-.2216187,120.0639038-1.4472656,120.0639038-1.4472656Z"/>
        <polygon class="cls-6" points="249.0278015 305.9126892 249.0278015 310.9152527 329.9907532 307.8737488 249.0278015 305.9126892"/>
        <polygon class="cls-6" points="249.0278015 387.4663391 321.1388855 387.4663391 321.1388855 384.7996521 249.0278015 384.3632507 249.0278015 387.4663391"/>
        <polygon class="cls-6" points="677.2129822 387.4663391 749.3240662 387.4663391 749.3240662 384.3632507 677.2129822 384.7996521 677.2129822 387.4663391"/>
        <path class="cls-6" d="M316.6944275,369.7996521c-6.571228-.1043091-61.0205688-.0562744-67.666626-.0500488v4.1611328h81.2946167c-.0703125-1.1565552-.1290283-2.3161011-.1762085-3.4787598-2.9144897-.2026367-8.5336304-.5542603-13.4517822-.6323242Z"/>
        <path class="cls-6" d="M330.1961975,355.0306702c-1.071167-.2798462-2.5478516-.4888306-4.612854-.5643311-8.003479-.2928467-63.2415771-.4998779-76.555542-.5459595v4.2125854h81.0510864c.031311-1.0361328.0675659-2.0709229.1173096-3.1022949Z"/>
        <path class="cls-6" d="M681.6574402,369.7996521c-4.9181519.078064-10.5372925.4296875-13.4517822.6323242-.0471802,1.1626587-.105896,2.3222046-.1762085,3.4787598h81.2946167v-4.1611328c-6.6460571-.0062256-61.0953979-.0542603-67.666626.0500488Z"/>
        <polygon class="cls-6" points="749.3240662 341.662384 749.3240662 337.0272522 669.5462952 340.2441101 749.3240662 341.662384"/>
        <path class="cls-6" d="M668.1556702,355.0306702c.0497437,1.0313721.0859985,2.0661621.1173096,3.1022949h81.0510864v-4.2125854c-13.3139648.0460815-68.552063.2531128-76.555542.5459595-2.0650024.0755005-3.541687.2844849-4.612854.5643311Z"/>
        <path class="cls-6" d="M296.1388855,297.7996521c-25.0835571.9772949-40.604126-.0744019-47.111084-.7060547v.869873c13.3691406,1.1557617,26.8146362,2.1694946,44.111084,2.1694946,15.0288696,0,40.2665405.9940186,48.4276733,1.3325195.4901123-1.2590332.9954834-2.510376,1.5144043-3.7545776-3.9140625-.2744141-18.2802734-1.0279541-46.9420776.0887451Z"/>
        <path class="cls-6" d="M249.0278015,328.2441101h84.5907593c.2649536-1.2667847.5411377-2.5294189.8339844-3.7856445l-85.4247437-.6588135v4.444458Z"/>
        <path class="cls-6" d="M348.1388855,242.0218811c-.5396729,0-76.15448-2.3065796-99.111084-1.1138916v3.6694336h60.222229c18.888855,0,39.444397-2.555542,38.888855-2.555542Z"/>
        <polygon class="cls-6" points="249.0278015 337.0272522 249.0278015 341.662384 328.8055725 340.2441101 249.0278015 337.0272522"/>
        <path class="cls-6" d="M345.3611145,283.2441101c-30.9527588-2.4257812-83.5090942-2.7331543-96.333313-2.7720947v4.5509644c12.6224365.0029297,84.9816284-.0558472,96.333313-1.7788696Z"/>
        <rect class="cls-6" x="249.0278015" y="259.3551941" width="110.888855" height="3.666687"/>
        <path class="cls-6" d="M653.879425,354.3551941h-51.1109009c-9.222229,0-14.444458,3.777771-14.444458,3.777771l-4.8971558-2.111084,7.1858074-6.4881129c2.1785394-1.9670176,5.0006054-3.0704501,7.9355915-3.1028295l54.6274414-.6026611c-.3032837-2.7808228-.6782227-5.5393066-1.1219482-8.2745361l-70.6566772-.6430054s19.2603149-5.888855,43.0380859-5.888855h26.4248047c-.5249023-2.5566406-1.1104736-5.0903931-1.7556152-7.5999756-12.8701782-.3032837-87.7265015-2.0667114-88.3358765-2.0667114-.666687,0,9.444458-2.333313,28.888916-3,16.8937988-.5791626,49.7178345-.1520386,58.0400391-.0299683-.9925537-3.3880005-2.0911865-6.7290039-3.2976685-10.0172119l-51.9645996-1.6194458,49.7908936-3.9790039c-1.5568848-3.7913208-3.25-7.5101929-5.0831299-11.1445312-10.6897583.291748-42.9661255,1.1328735-61.2263184,1.177002-22.111084.0535278-51,.7243042-58.111084-1.2756958,8-.111145,14.888855-2.666687,17.333313-1.444458,3.666687.444458,4.444458-.3302612,4.444458-.3302612,5.666687-7.3364258,15.111084-6.1141968,17.333313-2.2252808,6.333374-5.666687,13-4.888916,17-.888916,6.666687-2.222229,10.777771-1,11.666687,1.111145,7.666687-.444458,13.0060425-5.1395874,20.2808228-1.7364502,6.7191772-1.7080078,12.2006226.0931396,13.9043579,2.1925659,3.7037354-2.0117188,6.1481323-1.0994263,7.7037354,0,1.2924805.9134521,4.9120483,1.6020508,8.6698608,1.4911499-26.0188599-49.8668213-77.5877075-83.8361816-136.9661865-83.8361816-59.3552856,0-110.9071655,33.9428101-136.9358521,83.777771h6.6765747s11.222229-7,14-2.555542c6.333374-5.666687,12.777771-4.444458,14.666687-.444458h10.555542c11.111145-11.777771,28.888916-7.7419434,28.222229-.2042847,6.666687-1.0179443,11.444458-1.0179443,11,3.2042847,9.222229.111145,12.222229-.111084,13.222229,1.333313,6.777771.888916,16.666687,1.222229,16.666687,1.222229-43.4960938,1.1365356-98.7719727.3878784-116.3696899.0993042-1.7061157,3.4224243-3.2924194,6.916687-4.7545776,10.4772949l49.7908936,3.9790039-51.9645996,1.6194458c-1.2064819,3.288208-2.3051147,6.6292114-3.2976685,10.0172119,8.3222046-.1220703,41.1462402-.5491943,58.0400391.0299683,19.444458.666687,29.555603,3,28.888916,3-.609375,0-75.4656982,1.7634277-88.3358765,2.0667114-.6451416,2.5095825-1.2307129,5.043335-1.7556152,7.5999756h26.4248047c23.777771,0,38.666687,5.888855,38.666687,5.888855l-66.2850342.6414795c-.4422607,2.7263794-.8161621,5.475769-1.1189575,8.2474365h57.0229821c3.765026,0,7.4118498,1.3148424,10.3106317,3.717442l7.8481488,6.504787-10.333313,2.111084s-5.222229-3.777771-14.444458-3.777771h-51.1109009c-.1005249,1.8071899-.1746826,3.62146-.2147827,5.444458h46.3256836l-4.777771,5.666687-11.777771,3.444397h-29.710022c.0566406,1.6735229.1393433,3.3400879.2469482,5h21.1296997l-7.111084,7.777832h-13.3248901c8.916626,78.414856,74.4203491,139.2962646,153.9174805,139.2962646s145.0008545-60.8814087,153.9174805-139.2962646h-19.1767578l-9.333313-7.777832h29.2037964c.107605-1.6599121.1903076-3.3264771.2469482-5h-29.710022l-11.777771-3.444397-4.777771-5.666687h46.3256836c-.0401001-1.822998-.1142578-3.6372681-.2147827-5.444458ZM458.8796692,268.4663391c-20.1481934.444397-46.2963257,0-46.2963257,0,0,0,25.2592773-1.9259644,43.6296387-1.6296387,18.3703613.2962646,28.1481323-1.9259644,28.1481323-1.9259644-7.2592773,2.9630127-5.333313,3.111145-25.4814453,3.555603ZM515.2500305,264.9107361s16.5184937,1.9753418,35.6296387,1.8765869c19.111084-.0987549,41.555542,1.0864258,41.555542,1.0864258,0,0-32.9629517.2468872-53.8518677.7901001s-22.5184937-1.5308838-23.333313-3.7531128Z"/>
        <path class="cls-6" d="M344.2129822,205.7996521c-12.5925903,0-29.333313,0-50.9629517,0s-35.7037354,10.5184937-39.555603,21.9259033l-1.2037354,1.2963257h143.0109863c-1.1990967.9358521-2.3876343,1.8845825-3.56073,2.8518677h-142.0983887s-.7846069.8449707-.7846069.8449707c.6313477-20.617981,17.5320435-37.1412964,38.3031616-37.1412964h47.2522583s35.0810547,8.7407227,35.0810547,8.7407227c0,0-12.888855,1.4815063-25.4814453,1.4815063Z"/>
      </g>
      <path class="cls-3" d="M253.6203805,402.3181706s7.4814815-3.1111111,11.1111111-4.5185185,5.7037037-1.1111111,8.2962963.7407407,7.2592593,3.7777778,7.2592593,3.7777778c0,0,14.3703704-5.9259259,18.2962963-9.037037s7.3333333-5.5555556,10-2.2222222,6.8148148,5.6296296,12.8888889,1.6296296,15.6296296-17.7777778,18.3703704-20.4444444,5.7777778-1.3333333,7.5555556.6666667,6.4074074,6.2774293,6.4074074,6.2774293c0,0,28.9259259-18.1292812,32.037037-20.3515034s6.5185185-2.7407407,8.2222222-1.037037,5.4814815,4.5833333,5.4814815,4.5833333c0,0,8.5925926-5.1759259,11.6296296-7.1759259s11.037037-4.8148148,14.2222222-7.1851852,24.6666667-19.2592593,24.6666667-19.2592593l14.5185185,10.3703704,59.4814815-5.9259259,1.037037-3.7777778,14.5925926-8.5185185s26.2222222,20.5185185,29.7037037,29.1851852c6.7407407-.962963,19.2592593.7407407,21.1111111,4.1481481s4.2222222,4,6.2962963,1.4444444,5.8518519-1.962963,10.4444444,1.3703704,34.3888889,26.2222222,34.3888889,26.2222222c0,0,11.2407407-6.2962963,14.4259259-8.3703704s5.1111111-2.7407407,8.2962963-.0740741,23.6296296,16,28.0740741,19.4074074,7.2592593,4.5925926,8,4.6666667,11.9259259-4.2962963,16.8148148-5.7777778,6.1481481-1.7037037,9.1111111,1.1851852,12.962963,12.8888889,19.5555556,9.4074074,6.8888889,220.7407407,6.8888889,220.7407407H247.6944546l1.3333469-211.2962963,4.592579-10.8518519Z"/>
      <g>
        <g>
          <polygon class="cls-8" points="569.0833435 353.5774231 540.4484558 351.7644348 543.9166565 354.1329651 538.3611145 355.6885681 569.0833435 353.5774231"/>
          <path class="cls-8" d="M544.2962341,361.367218c1.7266235.4147949,3.1347046.7657471,2.9537964.7657471-.4163818,0-8.2426147,1.4624023-8.8648071,1.5560303.5220337-.0614014,4.3460693,1.8114624,7.3092041,4.5551147,3,2.777771,3.555603,6.222229,3.444458,9.222229,0,0,17.166687-.055603,24.333374-1.166687-13.277832-.888916-23.555603-2.555542-22.777832-2.5.777832.055542,20.777832-1.944458,24.277832-3.5-23.666687-.888916-28.722229-1.777771-28.055603-1.722229.666687.055542,17.888916-2.166687,17.888916-2.166687l-22.222229-1.888855,30.333313-2.388916-28.6204224-.7657471Z"/>
          <path class="cls-8" d="M646.8398743,395.0075378l-5.710083,4.1099854c6.2950439,4.644165,11.9540405,8.5379028,15.8239136,11.1265869-.6480103-7.7761841-7.3820801-13.2994385-10.1138306-15.2365723Z"/>
          <path class="cls-8" d="M573.5833435,391.3551941l-9.666687,1.555542,21.944458-.333313s-9.5620117-1.8529053-16.6187134-2.1117554l4.3409424.8895264Z"/>
          <path class="cls-8" d="M571.1670227,401.1462708c3.1356812,3.4466553,6.993103,7.5460205,10.9718628,11.4311523,3.829834,3.7396851,9.7921753,9.1055908,17.9074097,14.5786743,6.1132202.0462036,24.2389526.008667,30.9074097-1.9490356-19.4074097-2.5925903-33.2592773-2.3703613-36.9629517-4.7407227,17.0370483-.3703613,23.111084.5184937,26.7407227-.888916-18-4-33.333313-4.491394-33.333313-4.491394,0,0,11.6296387.269165,16.8148193-4.3234253-15.0370483,1.1851807-22.222229.2963257-22.222229.2963257,0,0,18.666687-1.333374,24.4815063-4.5925903-23.5925903.8148193-31.1481934-1.777771-31.1481934-1.777771,0,0,27.4074097-.2963257,30.2963257-3.555603-17.5239258.1196289-30.213623.0460815-34.4533691.0133057Z"/>
          <path class="cls-8" d="M568.467804,398.1448059c4.9992676-.1384888,25.5259399-.7539062,31.8192139-1.6784668-15.8674316-1.3041992-30.3751221-1.5148926-34.6516113-1.5489502.7432251.8584595,1.7023926,1.9560547,2.8323975,3.227417Z"/>
          <path class="cls-8" d="M749.3240662,446.0218811l-2.1306763-18.0883179-17.2026367-10.2820435v4.888855s-3.1484985-1.1922607-7.3514404-3.6099854c-9.4420776.5217285-21.977356-6.4368286-33.1670532-13.1307373-6.9320679-4.1468506-15.2055664-10.015564-21.1778564-14.402832-1.692749-.2942505-3.5040283-.772522-5.1925659-1.541626,1.6296387,2.1296387,10.222229,5.722229,10.222229,5.722229,0,0-1.777771.2963257-6,0,2.5925903,2.444458,11.2592773,4.3703613,11.2592773,4.3703613,0,0-2.222229.888916-8.1481323.7407837,1.9259033,1.2592163,10.222229,2.444397,10.222229,2.444397,0,0,.1481323.888916-5.4815063,1.1851807,3.7037354,4,21.333313,9.0370483,21.333313,9.0370483,0,0-5.4814453.2963257-10.666626-.888855,4.7407227,3.555542,16.5925903,4.888855,16.5925903,4.888855l-9.333374,1.6075439s5.9259644,4.1702271,16.7407837,6.8369141,18.3703613,7.4074097,28.888855,11.2592773c-7.2592163.888855-17.333313-2.222229-36.5925903-3.555603-19.2592163-1.333313-32.7407227-15.8518066-32.7407227-15.8518066,0,0,1.0370483,2.666626,1.333313,6.8148193-4.6050415-2.5527954-9.5499268-5.8956909-14.3999023-9.3912964-15.6665039.2539062-30.637146-18.6087036-30.637146-18.6087036,0,0,9.479126,5.6871338,24.1212158,13.8054199-7.0278931-5.2783813-13.3851318-10.2632446-17.5656128-12.8054199-8.222229-5-13.555603-4.666687-23.666687-15.444458,0,0,4,8.111084,7.333313,21-2.7649536-8.1669312-10.666626-14.666687-20.666626-21.777771-10-7.111145-10.555603-10.777771-19.444458-20,3.666687,19.666626,13.111084,25.444458,19.888855,29.444458,6.777832,4,11.666687,10.444397,20.111145,18,8.444458,7.555542,23.444458,19,37.444458,21.555542-30.8286133.1885376-41.8181152-.5031738-51.3638306-1.8709106,11.7404785,7.6288452,27.6550293,15.2475586,47.8082275,18.7597656-32.888855-.1481323-48.2962646-11.8518066-48.2962646-11.8518066l4.444458,8.5925903s-15.111145-4-21.0370483-8.444458-9.0370483-6.222229-20.444458-1.1851807c-.7407227-5.4815063-1.0370483-6.0740967-6.9629517-3.8518677s-8.888916.888916-8.888916.888916c0,0,7.8518677-4.2963257,9.1851807-6.666687-15.4074097,2.0740967-17.222168-.0925903-19.444397-2.5925903,8.777771-5.888916,20.777771-8,26.444397-7.722229-7.166626-2.277771-12.111084-2.055542-12.111084-2.055542l-41.333313-9.333374-17.333374-3.111084s-19.777771,11.666687-24.555542,19.333313c-4.777771,7.666687-9.333313,11.333374-16.888855,11.777771-7.555603.444458-7,2.1721802-21,7.7407837,4.888855-3.9389648,7.222168-11.4074097,7.222168-11.4074097l-10.222168-1.333374-15.444458,12.0130615s3-7.1241455,4.369751-14.6796875c-2.296875.222229-10.258667,3.888855-16.703125,9.777771-6.444397,5.888855-14.111084,6.555542-14.111084,6.555542,0,0,3.555542-3.777771,4.555542-10.444458-5.333313.777771-16.333313,8.222229-16.333313,8.222229,0,0,3.222229-3.555542,2.111084-6.777771-14.111084,10.555542-34.4074097,7-34.4074097,7,0,0,14.1481934-1.0370483,36.222229-13.7036743,29.6296387,1.777771,34.222229-3.7037354,55.8518677-20.5185547,0,0,1.222229,2.555542,3.222229,4.888916,12.555542-5,26.8518677-24.3703613,26.8518677-24.3703613l18.666626-12.1481934,3.4815063-16.9259033c.3461304-.3118286.7061157-.6199341,1.0778809-.9244385l-1.8927002-.2236938s-4.9950562,4.3696899-10.7682495,8.6309814l-22.8233643-14.7600098c2.4171143,2.8119507,4.4064331,4.6104736,4.4064331,4.6104736l-3.8457642-1.1869507-5.1542358-1.5908203,3.9682007,4.5350952,1.4762573,1.6871338-7.333374-3,6.111145,5.111145-2.3950195-.5987549,15.5712891,11.6259766c-.1833496.0915527-.3674927.1842651-.5466309.269043-5.7388916-1.7272339-14.7449951-9.2365723-18.8571777-12.8531494l-1.7724609-.4431152,6.111084,6.222168-8.222229-3,2.444458,5.222229-4.222229-1.666626s-2,4.222229-2.666626,7.666626l1.888855-.555542s9.777771,19.888916,19.888916,16.444458c-8.333374,3.888855-16.444458-4.555542-16.444458-4.555542,0,0-4.444458,12.888855-14.444458,16.666626-1.777771-8.222229-1.222229-12.777771-1.222229-12.777771,0,0-14.666626,7.888916-24.222229,14.444458,1.333374-3.777771.777771-5.555542.777771-5.555542,0,0-10.777771,7.1481323-22.222168,16.0740356-11.444458,8.9259644-23.111145,7.3704224-23.111145,7.3704224l-2-3.777832-19.111084,15.444458c-13.0370483-6.8148193-16.1481934-5.4814453-27.7037354-.7407227s-25.1851807,12.7407227-45.6296387,7.7036743c37.0370483-5.4814453,36.444458-13.777771,65.0370483-21.1851807-10.222229-.2962646-17.777771-.7407227-17.777771-.7407227l20.7407227-8.2962646c-.9066162-.1209106-2.0714722-1.2161255-8.4984741-.2156372-2.7421875,1.5447388-5.647583,2.4598999-8.2818604,2.9750977-4.9932861.9766235-8.9974365.5738525-8.9974365.5738525l-3.8518677.1481323,1.0740967,3.5925903-3.777771-2.9259033-9.6588745.3115845c-.6091309.3342896-1.1682129.6348267-1.6374512.8735962-4.222168,2.1481323-8,2.888855-12.222168-.222229-2.0228882-1.4905396-3.8250732-2.2091064-5.6665649-2.3322754-1.2128296,5.9556885,4.4813843,9.5915527,4.4813843,9.5915527,0,0-3.9259644,1.8518066-10.444458,5.9259033,1.5227051-3.906189-.7572021-8.4547729-8.0253296-10.2778931-2.2597046,1.1946411-3.9376221,2.1297607-3.9376221,2.1297607l-4.777832,199.333313,505.111145,6.5185547-3.4815063-176.0740967ZM615.3611145,392.5774231s9.888916,9.444458,25.333313,19.777771c-16-7-25-19-25.333313-19.777771ZM451.8055725,394.6885681c-8.888916-1.555603-9.444458-7.555603-9.444458-7.555603,0,0,5.333313,6.666687,9.444458,7.555603ZM274.1388855,419.5033264s11.8518677-2.222168,16.2963257-4.1481323c4.444458-1.9259033,8.1481323-1.6296387,8.1481323-1.6296387-5.333313,12-22.2963257,20-33.4074097,18.2963257.222229.0740967,12.888916-6.444458,14.7407227-11.333313-4.666626-.1481934-5.777771-1.1852417-5.777771-1.1852417Z"/>
          <path class="cls-8" d="M425.7164612,368.667572c2.3782349-3.1405029,2.5610352-5.3964233-.3182983-7.0901489l-12.3703613,8.5,9.6536255-1.0726318,3.0350342-.3372192Z"/>
        </g>
        <g>
          <path class="cls-8" d="M422.681427,369.0047913c-4.7446289,4.4552002-13.8428955,11.1240845-18.7647705,13.0170898-5.777771,2.222229-11.8518066,5.4814453-16.888855,9.555542-4.5449829,3.6760864-11.2562256,3.861084-16.6062622,5.9286499,3.0371094,2.9941406,9.7605591,2.4875488,15.4951172-2.0397339,6.333374-5,11.222229-7.777771,16.111145-9.444458,4.888855-1.666687,16.0370483-9.2592773,20.8518677-14.1481323,1.1450806-1.1627197,2.0946655-2.2262573,2.836792-3.2061768l-3.0350342.3372192Z"/>
          <path class="cls-8" d="M387.8611145,383.2441101c4-3,6.833313-5.111145,11.333313-5.777771-.166626-1.555603-2.055542-2.222229-2.055542-2.222229l-7.777771-.555542,5.777771,3.222168s-11.888855,1.555603-18.666626,6.222229c0,0,7.388855,2.111145,11.388855-.888855Z"/>
          <path class="cls-8" d="M371.7643127,387.5899353c-2.7205811,1.7644653-3.7363281,3.4277344-3.5428467,5.3501587l11.3618774-.3071289-7.8190308-5.0430298Z"/>
        </g>
        <g>
          <path class="cls-6" d="M693.1018372,418.962738l9.333374-1.6075439s-11.8518677-1.333313-16.5925903-4.888855c5.1851807,1.1851807,10.666626.888855,10.666626.888855,0,0-17.6295776-5.0370483-21.333313-9.0370483,5.6296387-.2962646,5.4815063-1.1851807,5.4815063-1.1851807,0,0-8.2963257-1.1851807-10.222229-2.444397,5.9259033.1481323,8.1481323-.7407837,8.1481323-.7407837,0,0-8.666687-1.9259033-11.2592773-4.3703613,4.222229.2963257,6,0,6,0,0,0-8.5925903-3.5925903-10.222229-5.722229,1.6885376.769104,3.4998169,1.2473755,5.1925659,1.541626-4.7492065-3.4888306-8.0443726-6.041626-8.0443726-6.041626l-13.4101562,9.6523438c2.7317505,1.9371338,9.4658203,7.4603882,10.1138306,15.2365723-3.869873-2.5886841-9.5288696-6.4824219-15.8239136-11.1265869-11.538147-8.5122681-25.2203979-19.5540771-33.9909058-29.7623291-8.111084,2.555542-10.333313,2.666687-14.333313-.444458-4-3.111084-15.222229-7.555542-17-7.666626,8.888855,9.222229,9.444458,12.888855,19.444458,20,10,7.111084,17.9016724,13.6108398,20.666626,21.777771-3.333313-12.888916-7.333313-21-7.333313-21,10.111084,10.777771,15.444458,10.444458,23.666687,15.444458,4.180481,2.5421753,10.5377197,7.5270386,17.5656128,12.8054199,2.1244507,1.5955811,4.3096924,3.2131348,6.5159302,4.8032837,4.8499756,3.4956055,9.7948608,6.838501,14.3999023,9.3912964-.2962646-4.1481934-1.333313-6.8148193-1.333313-6.8148193,0,0,13.4815063,14.5184937,32.7407227,15.8518066,19.2592773,1.333374,29.333374,4.444458,36.5925903,3.555603-10.5184937-3.8518677-18.0740356-8.5925903-28.888855-11.2592773s-16.7407837-6.8369141-16.7407837-6.8369141Z"/>
          <path class="cls-6" d="M303.3611145,413.1700134l-1.0740967-3.5925903,3.8518677-.1481323,6.8148193-2.888916s-7.0370483.7407837-7.4814453.7407837c-.444458,0,4.5925903-2.888916,4.5925903-2.888916,0,0-.8148193-3.0370483-3.8518677-2.3703613-2.6995239.5925903-11.416748,5.8602295-16.2885132,8.5338135l9.6588745-.3115845,3.777771,2.9259033Z"/>
          <path class="cls-6" d="M264.4352112,424.3922424c6.5184937-4.0740967,10.444458-5.9259033,10.444458-5.9259033,0,0-5.6942139-3.6358643-4.4813843-9.5915527-2.0021362-.1339722-4.0507812.4370728-6.4816284,1.5174561-2.34552,1.0424805-5.2232056,2.5148315-7.5067749,3.7221069,7.2681274,1.8231201,9.5480347,6.3717041,8.0253296,10.2778931Z"/>
          <path class="cls-6" d="M358.3611145,417.6885681s11.666687,1.555542,23.111145-7.3704224c11.444397-8.9259033,22.222168-16.0740356,22.222168-16.0740356,0,0,.555603,1.777771-.777771,5.555542,9.555603-6.555542,24.222229-14.444458,24.222229-14.444458,0,0-.555542,4.555542,1.222229,12.777771,10-3.777771,14.444458-16.666626,14.444458-16.666626,0,0,8.111084,8.444397,16.444458,4.555542-10.111145,3.444458-19.888916-16.444458-19.888916-16.444458l-1.888855.555542c.666626-3.444397,2.666626-7.666626,2.666626-7.666626l4.222229,1.666626-2.444458-5.222229,8.222229,3-6.111084-6.222168,1.7724609.4431152,3.8325195.9581299,2.3950195.5987549-6.111145-5.111145,7.333374,3-1.4762573-1.6871338-3.9682007-4.5350952,5.1542358,1.5908203,3.8457642,1.1869507s-1.9893188-1.7985229-4.4064331-4.6104736c-.7643433-.8892212-1.5704956-1.8773193-2.3713379-2.9450684,4.222229,3.111145,12.3501587,4.2865601,12.3501587,4.2865601-6.0942993-1.602356-11.3501587-7.2865601-11.3501587-7.2865601,0,0-19.555542,15.8518677-25.6296387,20,2.8793335,1.6937256,2.6965332,3.949646.3182983,7.0901489-.7421265.9799194-1.6917114,2.043457-2.836792,3.2061768-4.8148193,4.888855-15.9630127,12.4814453-20.8518677,14.1481323-4.888916,1.666687-9.777771,4.444458-16.111145,9.444458-5.7345581,4.5272827-12.4580078,5.0338745-15.4951172,2.0397339-.3171387-.3126221-.6071167-.651062-.8381958-1.0397339-.7722168-1.2987061-1.2538452-2.4527588-1.3618774-3.5262451-.1934814-1.9224243.8222656-3.5856934,3.5428467-5.3501587.5690918-.3690796,1.2069092-.7422485,1.9301147-1.1235962l8.111145,2s-3-2.222229-5.333313-4.333374c6.777771-4.666626,18.666626-6.222229,18.666626-6.222229l-5.777771-3.222168,7.777771.555542s-5.444458-2.666687-6.111084-6.666687c0,0-24,15.666687-31.4815063,19.666687-7.4814453,4-9.6296387.888855-16.1481323-4.444458-2.5184937,6.2963257-8,12.222229-16.3703613,19.555542-1.1390381.9978638-2.3590088,1.8206177-3.6096191,2.5251465,6.427002-1.0004883,7.5918579.0947266,8.4984741.2156372l-20.7407227,8.2962646s7.555542.444458,17.777771.7407227c-28.5925903,7.4074097-28,15.7037354-65.0370483,21.1851807,20.444458,5.0370483,34.0740967-2.9629517,45.6296387-7.7036743s14.666687-6.0740967,27.7037354.7407227l19.111084-15.444458,2,3.777832Z"/>
          <path class="cls-6" d="M722.6393127,418.9303894c4.2029419,2.4177246,7.3514404,3.6099854,7.3514404,3.6099854v-4.888855l17.2026367,10.2820435-1.350769-11.4672241s-25.6296387-6.9630127-36.444458-8c4.1470947,4.6563721,9.1850586,8.1307983,13.2411499,10.4640503Z"/>
          <path class="cls-6" d="M601.8862,428.3731995c-.6246338-.4058838-1.2388306-.8117676-1.8399048-1.2171021-8.1152344-5.4730835-14.0775757-10.8389893-17.9074097-14.5786743-3.9787598-3.8851318-7.8361816-7.9844971-10.9718628-11.4311523-.9761353-1.072998-1.8818359-2.0818481-2.6992188-3.0014648-1.1300049-1.2713623-2.0891724-2.3689575-2.8323975-3.227417-1.0915527-1.2607422-1.71875-2.0066528-1.71875-2.0066528l9.666687-1.555542-4.3409424-.8895264-9.2145996-1.8882446s1.888855-.777771,9.111084-.333313c-1.111084-1.777771-9.555542-3.555542-9.555542-3.555542l2.777771-1.111145-8.333313-2.111084,4.777771-.111145s-3.888916-2.555542-9.666687-3.888855c.111145-3-.444458-6.444458-3.444458-9.222229-2.9631348-2.7436523-6.7871704-4.6165161-7.3092041-4.5551147-.0419922.0062866-.0521851.0065918-.0241089-.0004272.0054321-.0013428.0176392.0012207.0241089.0004272.6221924-.0936279,8.4484253-1.5560303,8.8648071-1.5560303.1809082,0-1.2271729-.3509521-2.9537964-.7657471-2.5151978-.604248-5.7128906-1.3453369-5.7128906-1.3453369l13.555542-1.777771-13.777771-2.555542,5.555542-1.555603-3.4682007-2.3685303-1.0873413-.7425537s14.055542-.666687,22.166687-2.611145c-5.722229-.944397-24.333374-1.666626-24.333374-1.666626,0,0,12.055603-.888916,16.944458-2.111145-1.722229-1.277771-12.666626-1.111084-12.666626-1.111084,0,0,2.444397-2.444458,6.277771-3-5-2.444458-9-7.944458-9-7.944458l-15.4259644,5.8148193s-23.7593994,5.9140015-35.4406128,15.4829712c-.3717651.3045044-.7317505.6126099-1.0778809.9244385l-3.4815063,16.9259033-18.666626,12.1481934s-14.2963257,19.3703613-26.8518677,24.3703613c-2-2.333374-3.222229-4.888916-3.222229-4.888916-21.6296387,16.8148193-26.222229,22.2963257-55.8518677,20.5185547-22.0740356,12.666626-36.222229,13.7036743-36.222229,13.7036743,0,0,20.2963257,3.555542,34.4074097-7,1.111145,3.222229-2.111084,6.777771-2.111084,6.777771,0,0,11-7.444458,16.333313-8.222229-1,6.666687-4.555542,10.444458-4.555542,10.444458,0,0,7.666687-.666687,14.111084-6.555542,6.444458-5.888916,14.40625-9.555542,16.703125-9.777771-1.369751,7.555542-4.369751,14.6796875-4.369751,14.6796875l15.444458-12.0130615,10.222168,1.333374s-2.333313,7.4684448-7.222168,11.4074097c14-5.5686035,13.444397-7.2963257,21-7.7407837,7.555542-.444397,12.111084-4.111084,16.888855-11.777771,4.777771-7.666626,24.555542-19.333313,24.555542-19.333313l17.333374,3.111084,41.333313,9.333374s4.944458-.222229,12.111084,2.055542c-5.666626-.277771-17.666626,1.833313-26.444397,7.722229,2.222229,2.5,4.0369873,4.666687,19.444397,2.5925903-1.333313,2.3703613-9.1851807,6.666687-9.1851807,6.666687,0,0,2.9630127,1.333313,8.888916-.888916s6.222229-1.6296387,6.9629517,3.8518677c11.4074097-5.0370483,14.5185547-3.2592773,20.444458,1.1851807s21.0370483,8.444458,21.0370483,8.444458l-4.444458-8.5925903s15.4074097,11.7036743,48.2962646,11.8518066c-20.1531982-3.512207-36.067749-11.1309204-47.8082275-18.7597656Z"/>
          <path class="cls-6" d="M451.8055725,394.6885681c-4.111145-.888916-9.444458-7.555603-9.444458-7.555603,0,0,.555542,6,9.444458,7.555603Z"/>
        </g>
      </g>
      <path class="cls-7" d="M252.9537139,450.3922447c16.2962963.7407407,38.5185185,14.2222222,38.5185185,14.2222222,19.1111111.7407407,36,3.8518519,46.5185185,3.7037037s14.962963,2.2222222,22.8148148,2.3703704,18.0740741,1.3333333,21.4814815,2.962963,33.1851852,4.1481481,64.5185185,5.2592593,118.6666667-1.7777778,141.1111111-1.7777778,23.7777778.4444444,27.5555556-2,13.7777778-4.2222222,19.1111111-4.2222222,15.5555556,1.5555556,22.4444444-1.7777778,13.7777778-4.3542991,13.7777778-4.3542991c0,0,23.7777778.0901453,29.7777778,0s5.7777778-.4234786,9.5555556-2.0901453,32.7777778-13.7037037,36.6666667-12.2962963,1.6303783,46.2962963,1.6303783,46.2962963c0,0-8.9637116,3.5555556-9.6303783,3.5555556-31.1111111,1.7777778-53.9259259,3.7777778-75.8518519,1.6666667s-18.8148148-1-53.037037-.5555556-58.2222222,6.2222222-90.2222222-1.1111111c-27.3333333-2.8888889-38-2.2222222-38-2.2222222,0,0-54,2.8888889-86.8888889,2.4444444s-54.6666667.8888889-70.8888889-.6666667-50.2222222,1.1111111-59.3333333-1.3333333-15.555542-11.5555556-15.555542-11.5555556l3.9259124-36.5185185Z"/>
      <g>
        <path class="cls-6" d="M624.9537048,545.2070618l-58.0370483,3.3703613-23.5925903,1.9629517,120.0499878,3.5100708,5.5056152,5.8233032s-19.0370483.888855-37.2592773-1.6296387c-18.222229-2.5185547-134.5185547-6.5185547-175.111145-4.6327515s-118.9259033,6.4105225-118.9259033,6.4105225l-.0401611-5.5596313,112.5957031-3.9959106-17.777771-1.222229-8.0740967-3h-12.3703613l-80.222229-8.222229-5.7299805,30.777771,54.6929932-8.4815063,78.222229,3.7037354-72.4718018,1.7578735,12.3236084,6.1309814,74.666687.555603s-33.1851807.1481323-44.888916,3.111084l-35.2592163,19.777771s74.222229,6.666687,76.222229,7.333374c2,.666626,101.555542-4.2963257,101.555542-4.2963257l6.7516479-20.8292236s-19.196106-5.0966797-48.5294189-5.6522827c22.7096558-1.9036865,72.666626,3.666687,72.666626,3.666687l17.333374-10.222229s-45.4074097-2.222229-78.444458-2.0740356c96.1481323-4.7407837,96.444458,6.888855,96.444458,6.888855l96-6.1481323,15.1859131-42.6531372-123.4822388,23.8383179Z"/>
        <path class="cls-6" d="M357.5506897,500.513031c8.84021,3.1308594,42.6622925,5.7310791,73.9180298-.4696045-3.7072144-1.0154419-54.3668823-2.0563965-73.9180298.4696045Z"/>
        <path class="cls-6" d="M427.8055725,511.4663391c11.888855.111084,17.444458,0,23.888855-4.444458,0,0-37.666626-.222229-53.333313.888855,2.555542,1.777832,17.555542,3.444458,29.444458,3.555603Z"/>
        <path class="cls-6" d="M405.6944275,518.2441101c6.555603,0,22.888916,2.666626,42.333374-.666687-4.111145-1.111084-33.666687-2.777771-42.333374.666687Z"/>
        <path class="cls-6" d="M443.5833435,526.6885681c4.444458-3.222229-5.444458-3.777832-5.444458-3.777832l-10.111084.444458c-8.777771,1.888916-9.777771,2-9.777771,2,0,0,8.444397,4,25.333313,1.333374Z"/>
        <path class="cls-6" d="M457.4722595,534.1329651c4-5.555542-4.777832-2.555542-4.777832-2.555542-10,4.666687-15.555542,7-15.555542,7,0,0,16.333374,1.111145,20.333374-4.444458Z"/>
        <path class="cls-6" d="M449.3611145,541.1329651c13.111145,2.222229,22.777771,1.666687,34-12.222229-3-12.222168-16.777771-.555542-16.777771-.555542,0,0-7.888916,13.333374-17.222229,12.777771Z"/>
        <path class="cls-6" d="M311.9363708,466.1634216c4.9085083,2.3637695,21.8692017,2.7473145,30.0795288,4.1917725s13.5674438,3,23.9007568,2.555542c10.333374-.444397,9.222229.111145,12.666687,2,3.444458,1.888916,1,2.111145,7.666687,1.777832,6.666626-.333374,22.0247192.1193237,33.222229-2-18.777832,0-28-.444458-31.7037354-3.0370483-3.7036743-2.5925903-10.1851807-2.4074097-18.2962646-2.2963257-8.111145.111145-14,.222229-23.444458-4,10.333313.222229,37.111084-2.555542,50.111084-.7407227-.2515259-.723999-1.5175171-1.2005005-3.5041504-1.5091553,2.3669434-.8321533,7.1314087-1.0184326,14.3930664-1.6019897,8.2962646-.666626,16.666626-1.2592163,36-5.4073486,0,0-33.9259644,3.2592163-48.3703613,3.4073486-2.2509155.7686157-2.7510986,2.5927734-2.8598022,3.4868774-8.1153564-.9842529-25.892395.2612915-39.4365234-.0794678-17.666687-.444397-72.013916-4.8840942-60.888855,1.7037354,19.777771-.4398804,38.111084.6296387,38.111084.6296387,0,0-12-.111145-17.6469727.9193115Z"/>
        <path class="cls-6" d="M534.6574402,472.7626038s-3.6296387-9.111084-7.8518677-18.7962646c0,0-5.7037354-2.611145-7.0370483-3.6882935-1.333313-1.0770874-4.7407227,0-4.7407227,0,0,0,3.4074097,10.9290161,3.4074097,12.1141968s16.222229,10.3703613,16.222229,10.3703613Z"/>
        <path class="cls-6" d="M607.9166565,461.8737488c-4.444397-4.8148193-30.666626-4.666687-42.444397-4.8148193-3.555603.2962646-3.777832.7407227-3.777832.7407227,10.888916,2.666687,40.7407837,4.1481323,46.222229,4.0740967Z"/>
        <path class="cls-6" d="M605.0278015,465.6515198c3.555542-1.1851807,3.0370483-1.7037354,9.7036743-1.7037354,6.666687,0,42.1851807,1.111145,43.388916,2.2963257-9.2407227,2.444458-14.1296387,3.4074097-23.4629517,2.9629517-9.333374-.444458-16.5925903.222229-20.2963257,2.5925903-3.7036743,2.3703613,2.2963257,3.111084-33.4074097,2.888916,13.7034302,2.4563599,32.2963257,2.9629517,35.1851807,2.7407227,2.888916-.222229,3.9259644-1.4815063,7.4815063-3.1851807,3.555542-1.7037354,7.4074097-1.4074097,14.666626-1.4074097,7.2592773,0,15.111145-.1010132,24.222229-2.1245728,9.111145-2.0235596,27.1851807-4.0235596,27.1851807-4.0235596l-17.7770386-1.9059448,32.3696289-.8348389c-24.5925903-1.333313-38.2962646-.888855-52.2962646-.9629517s-28.0740967-.5184937-35.111084-.5184937c-7.0370483,0-12.1481934-.2963257-11.8518677,3.1851807Z"/>
        <path class="cls-6" d="M602.3611145,503.1329651c6.888916-.222229,33.4074097,0,47.1851807-3.111084-17.7437134-2.2521362-92.9629517,0-92.9629517,0,0,0,16.5925903,1.4814453,22.8148193,2.0740967,6.222229.5925903,16.0740967,1.2592163,22.9629517,1.0369873Z"/>
        <path class="cls-6" d="M569.6203918,511.6515198c20.5184937-.0740967,24.9629517-1.2592773,32.2962646-3.777771l-57.333313-.7407837c.9629517,1.777771,4.5184937,4.5925903,25.0370483,4.5185547Z"/>
        <path class="cls-6" d="M568.6574402,520.9848328s19.4814453-1.111084,25.7036743-3.7036743c-5.555542-.222229-25.8518677-.8148193-40.3703613,0l14.666687,3.7036743Z"/>
        <path class="cls-6" d="M529.6203918,532.9848328s-6.2963257-2.444458-3.333374,2.3703613c8.444458,10.9629517,22.0740967,5.9259644,22.0740967,5.9259644,0,0-7.8518677.0740356-17.4074097-5.9259644l-1.333313-2.3703613Z"/>
      </g>
      <g>
        <path class="cls-3" d="M426.6944275,535.5774231s-2.777771,5.722229-4.444397,7.166687c-3.888916-10.333374-6.555603-18.611145-6.555603-18.611145,0,0-2.777771,12.166687-4.666626,14.277771-2.166687-3.833313-1.5-4-1.444458-5.833313s-2.111084-6.944458-3.888916-11.055542c-1.944397,5.444458-2.7407227,8.5740967-3.8518066,12.722229-.1365356.5097046-.3015137.989563-.4850464,1.4405518-1.4981689-.7852173-3.6778564-2.0987549-4.1075439-3.2924194-.666687-1.8518677-.9630127-1.333313.5184937-2.0740967,1.4815063-.7407227.1481323.5925903.1481323-2.0740356,0-2.666687-.7407227-3.0370483-1.777771-4.5185547-1.0370483-1.4814453.8148193-1.1851807.8148193-1.1851807,1.9259644.1481934,2.7407227-.3703613.2963257-3.1851807-2.444458-2.8148193-4.1481934-9.6296387-4.1481934-9.6296387,0,0-1.2592163,9.9259644-2.666626,14.8148193-1.4074097,4.888916-2.0740967,10.2963257-2.0740967,10.2963257l-2.3703613.0740356-2.7407227-7.555542s2.666626.9629517,4,1.0370483c-3.8518677-5.2592773-4.9630127-8.8148193-4.9630127-8.8148193,2.9630127.3703613,2.666687-.888855,2.666687-.888855-3.7036743-2.888916-2.9629517-3.555603-3.6296387-7.2592773-.666626-3.7037354-1.777771-5.4815063-1.777771-5.4815063,0,0-1.0370483,8.888916-1.777771,9.4815063s-2.8148193,1.333313-2.8148193,1.333313l2.5185547.888916c-.888916,5.777771-2.5925903,9.8518066-2.5185547,10.0740356.0740967.222229-1.9259033.7407837-1.8518677.9630127.0740967.222168,2.1481934.8147583,2.1481934.8147583l-1.3389282,4.2958374c-1.2157593-1.3693237-3.0085449-3.6466675-3.6240845-5.7772827-.9629517-3.333313-.5184937-3.333313-.5184937-3.333313l2.9629517,1.333313s-5.555542-5.2592773-5.777771-10.222229c-1.8518677,3.9259033-4.5184937,8.0740967-4.5184937,8.0740967l1.2592163,2.3703613s-.5727539.4883423-.7567139,1.2597046c-1.3673096-.2684326-3.0780029-.8571167-3.4654541-2.1486206-.666687-2.222229.3703613-4.7407227.3703613-4.7407227l2,.1481323-.888916-3.9259033,2.4351807,1.5462646-1.2799072-2.961731,2.2521362-.954895s-1.7119141-.3278198-2.8963623-.5499878l-.7332764-3.0796509,2.7407837-.666687c-5.1852417-5.0370483-5.777832-9.0370483-5.777832-9.0370483,0,0-1.4814453,6.5925903-1.8518066,6.888916-.1930542.1544189-.6659546.3279419-1.076355.4597168-1.7072144-1.9048462-4.9595337-5.7584839-6.03479-8.6078491l.8148193-.1481934s-2.4058838-6.5184937-3.1288452-9.8518066c-2.3526001,6.5925903-5.4637451,11.555542-5.4637451,11.555542l2.8148193,1.0370483s.8148193,3.7036743-1.777771,6.1481323c.666687.0740967,1.4074097.3703613,1.4074097.3703613,0,0-.888916,6.1481323-4.1481323,9.4815063.666626,2.8148193,2.444397,3.333313,2.444397,3.333313l-.368103,2.382019c-7.4608765-2.7437744-8.2244873-7.493103-8.2244873-7.493103l4,.222168s-4.2962646-4.222168-4.2962646-10.0740356c1.555542.1481323,3.1851807.888855,3.1851807.888855,0,0-4.5925903-4.5184937-5.4815063-6.888855,2.444458,0,4-.444458,4-.444458,0,0-4.8148193-3.555542-6.2962646-6.9629517,2.3703613,1.0370483,4.5925903,1.7036743,4.5925903,1.7036743l-3.4074097-4.666626,2.2962646-.0740967s-5.9259033-7.4074097-5.8518066-12.5184937c-2.8148193,12.1481323-4,14-6.9629517,14.5184937,1.0369873.888916,3.333313,1.7037354,3.333313,1.7037354,0,0-5.333313,2.8147583-6,7.7036743,3.111084-.9629517,5.1851807-2,5.1851807-2,0,0-1.2592773,5.4815063-3.1851807,7.555542-.5185547,3.777771-1.2592773,6.0740967-1.2592773,6.0740967l-1.333313.9629517v1.777771l-2.2963257,1.1851807,2.1481934,1.1851807-.666687,1.2592773s-2.8148193-1.1851807-5.777771-4.3703613c1.2592163-.9629517,3.8518677-1.1851807,3.8518677-1.1851807,0,0-2.2963257-.8148193-2.3704224-3.7037354-.0740356-2.888855,3.111145-3.2592163,3.111145-3.2592163,0,0-6,.5925903-7.111145-3.4074097,2.3704224-.2963257,3.8518677.1481323,3.8518677.1481323,0,0-3.1851807-5.333313-7.6296387-9.9259033,6.5925903-.3704224,7.7037354-3.111145,7.7037354-3.111145,0,0-7.777771,1.0370483-7.7037354-5.1851807,2.9629517.7407227,4.888916,0,4.888916,0,0,0-6.3703613-3.7036743-7.1851807-13.4815063-2.5925903,6.888916-4.5925903,11.333374-4.5925903,11.333374l3.2592163,1.111084s-4.9629517,3.0370483-5.8518066,5.4815063c3.333313-.0740967,4.666626.3703613,4.666626.3703613,0,0-4.2962646,3.1851807-5.2592163,5.7036743,3.2592163,1.0370483,4.3703613,2.1481934,4.3703613,2.1481934,0,0-8.444458,2.2962646-8.5185547,5.9259033,2.666687-1.7036743,5.111145-1.0370483,5.111145-1.0370483,0,0-1.4815063,2.888916-5.111145,3.4074097,2.5185547.7407227,3.2592773,1.9259644,3.2592773,1.9259644,0,0-.055603,1.8566284-.6401978,3.6466675-7.9772339-.9088745-9.777832-1.0369873-11.0634766-3.2022705-1.4074097-2.3703613.7407227-2.9629517,3.555542-1.6296387-7.111145-5.9259033-12.3703613-8.8147583-12.3703613-8.8147583l7.6296387.5925903s-7.6296387-8.888916-6.8148193-8.444458,7.555542.5184937,7.555542.5184937c0,0-9.3148193-5.944458-9.5925903-10.444458,5.611084,3.777832,9.277771,4.388916,9.277771,4.388916,0,0-9.722229-8.222229-9.722229-11.833313,3,.611084,5.722229,2.333313,5.722229,2.333313,0,0-2.444458-3.944458-5.722229-4.611084.333313-4.166687.222229-5,.333313-4.833374.111145.166687,2.944458,3.166687,5.333374,3-6.833374-6.722229-8.333374-15.611084-8.333374-15.611084,0,0-2.388855,9.222229-4.277771,11.833313-.111084,4.666687-.388855,5.777771-.388855,5.777771-4.722229,3.722229-4.611145,6-4.611145,6,0,0,3.7174072-.6588745,4.0858765-.7626953-.4001465.1611328-4.578186,5.154541-4.0860596,8.7071533,2.2779541-.666687,3.7224121-1.388916,3.7224121-1.388916,0,0-.388855,3.833374-4.222229,4.777832-3.833313.944397-3.333313,1.777771-3.333313,1.777771,0,0-.7063599,59.6296387-2.1124268,59.6296387-1.4061279,0,63.7791138,35.2592163,63.7791138,35.2592163l25-27-4.222229-10.222229,4.9113159.0567627c.3370361,1.8008423.9101562,6.1123657-.1890869,10.7210083,0,0,2.055542,2.277832,3.555542,0,.1755981-4.4060669-2.0015259-8.8679199-3.0305786-10.7171021l90.8638916,1.0504761s-2.111084-8.444458-5.666687-13.666687ZM288.9537048,515.3367004c-2.666687,1.277771-3.4074097,4.833313-3.4074097,4.833313l-1.555542.0740967s-1.1851807-2.8148193-3.4074097-3.1851807v-1.722229c6.6893311-.4031372,7.6026611-2.3569336,10.4612427-2.7501831-.4154053,1.1629639-1.065979,2.2590942-2.0908813,2.7501831ZM338.5833435,530.3922424l-.444458-2.9629517,2.6075439.5046997-.3112183,2.0137939-1.8518677.444458ZM350.8055725,509.7255554c-1.0370483-2-.5925903-3.111084-.5925903-3.111084l3.854126,2.0792236.8865967,1.994873s-.083252.3818359-.1983643.9156494c-1.5284424-.2347412-3.3643799-.7496948-3.9497681-1.8786621ZM351.7685242,515.4292908s-.1481323-1.8518677-.1481323-2.0740967c0-.1156006,1.522644-.5314941,2.9533691-.9043579-.2414551,1.1317749-.5089111,2.4121094-.5089111,2.5339966,0,.222229-2.2963257.444458-2.2963257.444458ZM360.8796692,532.8367004l-1.0370483-2.7407227,3.1273804.0906372c.0340576,1.0206909.0578003,1.9649048.0578003,1.9649048l-2.1481323.6851807ZM371.1759338,535.1329651l-.3710327-3.7036743,3.0435181,2.5708618-.3761597,1.2069092-2.2963257-.0740967ZM397.7685242,540.6144714l-.222229-3.7037354,2.4608765,1.2528076c-1.1201782,1.6087646-2.2386475,2.4509277-2.2386475,2.4509277Z"/>
        <path class="cls-3" d="M745.1944275,489.6885681c-6.055542-4.722229-6.555542-6.611145-6.555542-6.611145l4.611145,2.222229c-1.166687-4.611084-3-9-3-9h2.166626s-2.111084-3.555542-4.777771-5.333313c.222229-5.277771-1.277771-5.222229-2-7.833374-.722229-2.611084-2.888855-9.166626-2.888855-9.166626,0,0-.388916,12.555542-7.666687,15,5,.111084,6.388916-2.5,6.388916-2.5,0,0-1.722229,6.944397-6.222229,9.333313,4.833313-.444458,5.888855-1.555542,5.888855-1.555542,0,0-.944458,6.277771-9.5,9.222229,7.555542.611084,9.444458-1.555603,9.444458-1.555603,0,0-1.611084,6.277832-8.555542,9.055603,6.055542.944397,7.444458-.111145,7.444458-.111145,0,0-1.611145,6-7.944458,8.111145,4.8768311,1.163269,6.4005127.4174805,6.8097534.0827637-.8964233.9161377-6.6127319,6.5946655-11.9208984,7.9727783,4.555603,2,6.666687,1.055542,6.666687,1.055542,0,0-1.9829102,4.8411255-7.8599243,3.6923218-1.7922974-.8911743-3.6314087-2.1297607-4.3623047-3.6923218l3.222229-.166687c-3.277771-5.333313-.833313-6.333313,2.277771-4.555542-2.388855-4.5-3.166687-2.777771-5.055542-2.277771-1.888916.5-3.944458-.944458-3.833313-3.5,2.666626.444458,3.888855-.333313,3.888855-.333313-.666687-3.777771-3.666687-4.5-3.666687-4.5v-3.277771c3.611145.222229,4.611145.944397,4.611145.944397,0,0-3.166687-2.5-5.222229-4.611084s-1.222229-4.055542-1.055542-4.055542c2.666626.944458,2.666626.444458,2.666626.444458,0,0-5.277771-6.055603-5.444397-9.555603-.222229,7.333374-4.166687,11.5-7.722229,13.555603,5.222229.055542,7.388855-1.388916,7.388855-1.388916,0,0,.888916,2.333313-2.111084,3.5s-6.055542,2-6.333313,3.833313c3.388855,1.611145,6.444397.444458,6.444397.444458,0,0,.555603,3-1.5,4.666687-2.055542,1.666626-5.222229,4.222229-5.055542,6.777771,2.722229-.388916,5.055542.333313,5.055542.333313,0,0-7.277771,2.888916-8.888855,6.777771,4.777771-1.388855,7-1.111084,7-1.111084,0,0-4.555542,2.833313-5.222229,4.166687,3.333313-.722229,3.111084-.111145,3.111084-.111145l-1.833313,6.333313h-2.111084s.333313-3.5184937-2.444458-8.3425903c-2.777771-4.8240356-4.222229-10.6018066-4.222229-10.6018066h4.888855s-2.888855-4.833374-5.611084-11.222229c-2.722229-6.388916-4.111084-13.277771-4.111084-13.277771,0,0-1.777832,7.722229-4.666687,11.055542,2.055542,0,3.222229-.666687,3.222229-.666687l-4.388916,6.888916,4.555542-1.5s-3.944397,4.055542-6.277771,5.5c2.666687.444458,4.777771-.611145,4.777771-.611145l-4.555542,4.722229,4.111145-.722229-5.888916,6.5,1.833313-.333313-4,5.111084,3.166687-.611084-4.722229,5.222229,4.166687-1.833313s-.111145,1.388855-1.888916,3.555542c-1.777771,2.166626-3.888855,3.944458-5.388855,3.944458-.555542-2.277832.166626-2.888916.166626-2.888916l2-.444458s-2.1851807-3.277771-3.0740356-7.388855c-.888916-4.111145-.2963257-4.444458-.666687-7.1851807-.3703613-2.7407837,0-3.3704224,0-3.3704224l2.555542-.8147583s-3.888855-5-4.2592163-11.5926514c-1.8148193,4.5185547-4.0740967,8.666687-4.888916,12.1481934-.4957275,2.117981-1.2943726,3.5445557-2.1763916,4.5753174-4.3981323-1.3250732-5.1569214-5.0938721-5.1569214-5.0938721,0,0-2.833374,9.722229-7.722229,10.055603,2.555542.833313,4,.111084,4,.111084,0,0-5.222229,4.222229-7.444458,8.555542,5.111145-1,7.055542-3.055542,7.055542-3.055542l-1.166626,5.111084.888855.777832-.388855,1.777771s-5.388916,1.722229-6,5.166626c1.611084.333374,2.5.5,2.5.5l-1.833374,3.111145h-2.5v-2.111145l1.388916-.444397c-3.888916-3.777832-5.777771-9.333374-5.722229-11.555603-3.055542,7.944458-3.555542,8.555603-3.388916,8.555603.166687,0,1.944458-.555603,1.944458-.555603l-2.611084,5.777771h-1.5l-.222229-4.722168h.888855s-.888855-2-.888855-7-3.611145-8.833374-3.5-14.777832c-1.611145,7.111145-3.833313,11.722229-5.222229,12.888916,2.722229-.611084,3-.888916,3-.888916,0,0-3.444458,6.666687-4.611084,10.444458,2.111084-.833313,3.111084-1.555542,2.944397-1.333313-.166626.222229-3.5,5.777771-3.5,5.777771,0,0,.833374-4.055542-.944397-7.944458-1.777832-3.888855-2.5-5.055542-3.388916-9.888855-.888916-4.833374-1.611084-7.166687-1.722229-6.777771-.111084.388855-1.444458,10.277771-5.388855,12.833313,2.4265747.6309204,3.6229858-.5182495,3.8869019-.8190918-.4423828.5392456-3.5020752,4.3651123-3.5535889,7.0968628,1.333313.333313,2.166687-.111084,2.166687-.111084,0,0-1.3704224,2.2592163-2.555603,4.6295776-.6182251,1.2365112-.944397,2.5370483-2.722229,2.8704224-1.777771.333313-2.444397-.333374-2.444397-.333374l.222229-3.444458s2.166626-1.055542,1.722168-1.111084c-.444397-.055542-2.277771.611084-2.944397-2.611084-.666687-3.222229-2.166687-7.166687-2.166687-7.166687,0,0-5.0740967,14.388855-6.2592773,18.166687-1.9259033-5.0370483-5.2592163-13.777832-5.2592163-13.777832,0,0-3.4815063,7.7037354-4.222229,10.888916-.7407837,3.1851807-1.2592773,6.222229-1.2592773,6.5184937,0,.2963257-2.222229,1.333374-3.8518677-3.333313s-2.0740356-4.5184937-2.0740356-4.5184937c0,0-1.333374,5.4074097-2.7407837,7.555542s-2.8148193,3.1851807-3,6.555542h96.4074097s-3.8533936,6.9379272-2.7407227,11.9629517c1.1126709,5.0250854,6.222229,9.6296387,6.222229,9.6296387l73.2592773-2.5925903,9.2592163-51.111084-4.1296387-26.777771ZM655.8426208,512.4663391l-2.5185547,3.8518066-1.111084-.8148193s.2962646-2.5925903.1481323-2.5925903-1.9259033-1.777771-1.666687-4.0369873c.6785889-.173584,1.5177612-.6500244,2.2584229-1.1394653,2.2831421-.2921753,3.7045898-.675354,3.7045898-.675354,0,0-1.6296387,4.2962646-4,5.6296387,2,0,3.1851807-.222229,3.1851807-.222229ZM720.3611145,519.6885681h-2.777771v-2.166687l1.388916-.444458s-4-2.166687-6.111145-4.555542c1.4108887.2821655,2.6408081.4742432,3.664978.6057129,4.2528076,3.6088867,6.890564,3.0053711,6.890564,3.0053711l-3.055542,3.555603Z"/>
      </g>
      <g>
        <path class="cls-10" d="M434.381134,575.6125183c-1.8688354-1.7426147-4.7977905-3.5906372-8.3533325-1.9239502-3.555542,1.666626-7.111145,2.222168-11.222229,8.111084-4.111145,5.888916-10,6.222229-13.777771-.777771-3.777771-7-2.888916-10.666687-4.444458-15s-4.333313-3-7.666687-4.555542c-3.333313-1.555603-7.111084-3.333374-12.111084-3.444458-12.7029419-.2822876-25.888916.333313-31.666687,0s-7.222229-4.333313-7.222229-4.333313l-1.555542,3.222168s-1.444458-7.111084-5.222229-12.666626c3.333374,8.111084,1.555542,13.777771,1.555542,13.777771,0,0-4.111084-12.444458-14.666626-18.888916,7.333313,9.333374,7.888855,15.222229,7.888855,15.222229-3.2717896-5.9335938-7.6503906-10.1508179-11.2163086-12.8873291-.1027222-1.3684082-.0059204-2.3348999-.0059204-2.3348999l-.5971069,1.8809204c-3.2808838-2.4302368-5.7362061-3.5475464-5.7362061-3.5475464,0,0,2.4894409,1.4862061,5.387085,4.6473389l-1.2759399,4.0192871s-7.777832-7.222229-14.333374-11.111084c7.111145,5.777771,8.666687,11.111084,8.666687,11.111084,0,0-6.444458-7.444397-16.666687-11.888855,4.777771,4.777771,5.888916,8.888855,5.888916,8.888855,0,0-6.888916-7.222229-16.444458-13.111084,5,5.222229,6.222229,10.666687,6.222229,10.666687l-12.777771-11.111145,7.444458,11.111145-16.333374-11,9.222229,11s-11-4.111145-19.555542-15.333374l-3.8148193,64,40,13.333374,136.3699951-2.1080322s16.1115112-6.6697998,16.4448242-7.3364258c.333313-.666687-1.555542-6.222229-3.3267822-12.5817261-1.7712402-6.359436-3.2287598-3.3071899-5.0976562-5.0498657ZM315.0102844,543.5838318c1.343811,1.6478271,2.7094727,3.6313477,3.9063721,5.9935913-2.3704834-1.4223022-3.4346313-3.8402599-3.9063721-5.9935913Z"/>
        <path class="cls-10" d="M728.8055725,538.6885681s3.4814453-4.888916,8.5925903-9.777832c-6.5925903,3.0370483-19.3703613,13.222229-19.3703613,13.222229,0,0,2.111084-5.111084,10.444458-12.666626-6.666687,3-16.333374,12.333313-16.333374,12.333313,0,0,2.222229-4.666687,7.777771-11.222229-6.333313,3.222229-19.444397,15.222229-19.444397,15.222229l10.444397-13.333313-22.222229,17s3.444458-5.555603,10.333374-13.111145c-6,3.222229-17.666687,13.555542-17.666687,13.555542,0,0,2.666687-8.555542,12.555542-14.222168-11.666626,3.666626-20.111084,17.333313-20.111084,17.333313,0,0,.444458-7.555542,6.111084-13.555542-8.777771,4.888855-13.777771,19.333313-13.777771,19.333313,0,0-1-6.777771.444458-12.333313-3.666687,2.333313-4.222229,16.666626-4.222229,16.666626l-1-5.555542s-1.222229.222229-7.333313.333313c-6.111145.111145-18.888916-.444397-27.555542-.777771-8.666687-.333313-15.555603,4.111145-20.444458,7.888916-4.888916,3.777771-6.555542,3.444458-15.777771,5.333313-9.222229,1.888916-8.0362549,1.2554932-15,1.555542-6.9638062.3001099-11.111145,3.333374-20,16.333374l-5.4074097,10.1481323,118.5184937,26.0740967,74.9629517-45.222229,3.8518677-52.555542-18.3703613,12Z"/>
      </g>
      <g>
        <path class="cls-3" d="M749.3240662,600.1700134l-3.9259033-52.8148193-4.222229,3.555542v-4.8147583s-.8148193.5184937-5.6296387,14.888855c-2.3703613-9.2592773-.2962646-13.1851807,5.6296387-20.444458-5.7036743,5.0370483-9.2592773,3.4815063-13.0370483,24.5925903-5.2592163-9.4074097.5185547-21.9259033.5185547-21.9259033,0,0-7.555603,6.3703613-11.0370483,20.888916-2.1481323-4.1481934-3.555542-8.666687,5.555542-18.1481934-9.0370483,4.222229-19.6296387,29.7037354-19.6296387,29.7037354,0,0,3.0370483-10.222229,8-24.888916-8.9629517,9.777771-14.5925903,24.0740967-14.5925903,24.0740967,0,0-.1481323-11.2592773,8.3703613-25.777771-10.5925903,7.1851807-14.444397,25.4074097-14.444397,25.4074097,0,0-1.0370483-16.8148193,6.5925903-24.666687-10.8148193,2.5184937-12.5,22.611084-12.5,22.611084,0,0-1.6481934-12.388855.5740356-21.3518066-6.666626,3.7036743-5.111084,22.1481323-5.111084,22.1481323,0,0-3.333374-7.7037354-4.7407837-16.5184937-4.9629517,6.0740356-1.4074097,19.6295776-1.4074097,19.6295776,0,0-2.5184937-6.0740356-4-8.5925903-1.4814453-2.5184937-1.4073486-7.8518066-1.4073486-7.8518066,0,0-4.3704224,1.4814453-2,17.777771-4.5926514-7.111145-6.222229-16.444458-6.222229-16.444458,0,0-3.1851807,7.4074097-.5185547,20.1481323-5.333313-7.555542-6.1481323-13.0370483-4.666626-18.1481323,1.4814453-5.111084,2.444397-7.2592773,1.1851807-14.444458.0740356,4.0740967-.5185547,9.0370483-3.6296387,13.7037354-3.111145,4.666626-1.7037354,15.8518066-1.7037354,15.8518066,0,0-2.3703613,1.2592773-5.1851807,5.8518677-1.4814453-6.0740356,3.8518677-13.8518677,3.8518677-13.8518677,0,0-4.2963257,4.7407837-8.1481323,15.333374-1.555603-6.3703613,4.666626-16.1481934,4.666626-16.5185547s-4.444397,6.888916-10.666626,16.0740967c-.7407837-4.0740967,3.0370483-17.111084,3.0370483-17.111084,0,0-4,10.0740356-9.777832,15.9259033,2.2963257-5.555542,5.1851807-12.1481323,4.5185547-14,0,0,2.5184937-5.6296387,11.111084-10.3703613-7.333313,2.8148193-12.5925903,5.6296387-19.7036743,25.1851807-2.0740967-13.777771,8.5925903-24.888916,8.5925903-24.888916,0,0-7.333374,3.8518677-15.1851807,23.8518677-.888916-14,9.333313-23.1851807,9.333313-23.1851807,0,0-9.4815063,2.666687-17.4074097,23.4815063.222229-4.0740967,1.777771-15.0370483,8.5185547-27.2592773-6.8148193,5.0370483-14.3704224,25.2592773-14.3704224,25.2592773,0,0-1.0369873-6.5185547,1.777771-22.888916-5.6295776,6.2962646-8.8147583,21.8518677-8.8147583,21.8518677,0,0-1.777832-7.6296387,2.5184937-20.8148193-3.4074097,4.222229-5.7037354,16.5184937-5.7037354,16.5184937l-.9629517-12s.666687,11.555542-1.4074097,17.2592773c-.888855-8.222229-5.555542-16.7407227-5.555542-16.7407227l2,17.333313-7.4074097-13.2592773s.9629517,8.2963257,3.0370483,16.1481323c-4.2963257-11.555542-8.8148193-17.777771-8.8148193-17.777771,0,0,3.1851807,11.7037354,5.111084,19.9259644-4.164978-4.1031494-7.4068604-7.1131592-10.0394897-9.2837524l2.6691284-4.1236572-3.3557129,3.5671997c-1.0444946-.8362427-1.9898071-1.5325317-2.8566895-2.1060181.6891479-.718811,1.4381714-1.4632568,2.2680054-2.2389526-1.5643921.0601807-2.9379883.4951782-4.1472168,1.1201782-3.2540283-1.6906128-5.3919678-1.3846436-8.1306152-.4535522.1587524.0601196.3068848.1192627.4619141.1790161-4.3279419,6.0164795-7.184082,13.7098999-7.184082,13.7098999l.2407227-7.9259033-5.3703613,7.0369873.4074097-5.4074097s-1.666687,2.7037354-4.2963257,6.777771c-.5925903-3.7036743,1.2963257-6.5925903,1.2963257-6.5925903,0,0-1.833374.5-5.888916,6.166687-.611084-3,1.333313-8.5,1.333313-8.5,0,0-2.555542,2.888916-6.166626,8.833313-1.722229-4.944397,3.833313-9.722168,3.833313-9.722168,0,0-4.777771-.055603-8.444458,8.777771-1.166626-3.777771.444458-9.444458.444458-9.444458,0,0-2.277771.944458-5.833313,9.5-1.5-4.333313,1.277771-9,1.277771-9,0,0-4.111145,1.611084-6.666687,10.611084-1.666626-5.5,2.888916-13.388855,2.888916-13.388855-4.555542,4.111084-8.722229,12.777771-8.722229,12.777771,0,0-1.055542-4.722229,2.166687-13.222229-2.6201782,2.5934448-4.2862549,6.3689575-5.3117676,9.5899048l-3.3919678-60.5714111c6.5184937,14.0740967,22.3703613,19.8518677,22.3703613,19.8518677,0,0-7.2592163-3.2592773-12.444458-17.777771,5.4815063,9.0370483,18.666687,14.1481323,18.666687,14.1481323,0,0-.5925903-.222229-4.1481323-3.6296387,4.2962646,2.0740967,13.9259033,2.3704224,13.9259033,2.3704224,0,0-3.4074097-3.111145-7.7036743-8.888916,12,7.111084,28.5925903,4,28.5925903,4,0,0-9.333374-2.222229-15.8518677-8.2962646,7.8518677,4.444397,17.9259033,3.555542,17.9259033,3.555542,0,0-3.4074097-1.4815063-5.333313-3.7037354,17.6296387,2.0740967,27.111145-4,27.111145-4,0,0-49.1852417-2.222229-64.2963257-28.5925903,8.888916,7.7037354,16.777771,8.111145,16.777771,8.111145,0,0-2.555542-1.444458-6.555542-5.888916,9.555542,6.555542,19.222229,4.444458,19.222229,4.444458,0,0-9.222229-1.555542-15.777771-11.111145,11.222229,6.111145,21.222229,3.888916,21.222229,3.888916,0,0-5.444458-3.111084-9.555603-8.555542,7.777771,4.777771,14.888916-1.666687,14.888916-1.666687,0,0-6.333313,2.555542-8.555542-1.444458,4.333313,0,6.8518066-3.9259033,6.8518066-3.9259033,0,0-30.9629517,1.333313-41.9259033-23.4074097,3.7037354,3.7036743,13.6296387,12.1481323,13.6296387,12.1481323,0,0-1.0370483-2.9629517-1.0370483-6.666626,3.555542,5.9259033,11.555542,8.5925903,11.555542,8.5925903,0,0-4-4.7407837-4.7407227-8.5925903,3.555542,5.4814453,12.444458,8,12.444458,8,0,0-2.5185547-2.9630127-4.444458-6.8148193,3.555542,3.2592163,10.8148193,4.5925903,10.8148193,4.5925903l-6.9629517-6.222229s11.7036743,2.222229,18.3703613-2.0740967c-38.8148193-4.7407227-57.444458-37.4074097-57.444458-37.4074097l7.555542,7s-2-7.111084-3.777771-12.222229c3.777771,8.777771,15.666687,16.888916,15.666687,16.888916,0,0-4.555542-6.333313-4.666687-10.555542,4.777771,7.444397,16.888916,9.444397,16.888916,9.444397,0,0-4.777771-3.111084-9.777771-7.666626,12.111084,7.333313,20.888855-3.555542,20.888855-3.555542,0,0-3.888855,3.111084-9,2.222168,9.555542-1.555542,16.111145-12.333313,16.111145-12.333313-29.444458,5-47.222229-17.222229-51.222229-31.666687,1.777771,5.222229,9.222229,10.1481934,9.222229,10.1481934,0,0-.7407837-2.0740967-.666687-4.666687,2.666687,4.666687,8.444458,7.777771,8.444458,7.777771l-1.8518677-5.777771s2.8148193,4.444458,12.5184937,5.1851807c-2-.5184937-5.111084-4.7407227-5.111084-4.7407227l7.222229,1.5184937-3.888916-4.111084s8.555603,0,10.777771-8.888916c-25.444397,4.555542-37.5925903-19.9259033-37.5925903-19.9259033l6.9630127,2.7407227-2.1481934-5.777771,9.333374,4.2963257-3.9259644-5.6296387,7.777771,2.5925903-1.7036743-2.7407837s10.5184937,1.4074097,10.888855,1.4074097c.3704224,0-7.1851807-4.666626-7.1851807-4.666626,0,0,7.9259644-.1481934,11.777832-5.1851807-6.3704224.444397-12.666687-1.6296387-12.666687-1.6296387,0,0,11.1125488-3.555542,11.111084-10.8148193-21.2649536,4.1951294-31.2948608-17.3766479-31.7556763-18.3953857.1446533.3118896,1.1636353,2.2450562,5.1630859,4.6176147-1.9259033-1.4815063-1.1851807-3.9259644-1.1851807-3.9259644,0,0,1.4074097,3.111145,7.6296387,4.666687-1.7036743-1.4815063-2.0740967-4-2.0740967-4l4.7407837,3.777771-.2963257-2.8148193,6.0740967,2.7407837-3.4074097-3.333374s7.8518677,1.8518677,14.0740356-4.666626c-19.2592163,5.0369873-32.3703613-9.888916-33.4814453-22.111145l4.555542,3.777771-1.333313-4.555542s3.777771,6,11,4.333313c-5.777771-2.111084-7.444458-7.333313-7.444458-7.333313,0,0,4,.111084,8.111084-5-12.333313-.333313-15.888855-13.555542-15.888855-13.555542,0,0,3.777771,3,14.888855,2.111084-12.111084-3.555542-14.333313-11.777771-14.333313-11.777771,0,0,2.666687,2.666687,8.333313,1.111145-10-5-11.888855-16.555603-11.888855-16.555603l3.888855,3.666687s-4.333313-6-7.333313-18.555542c-1.555542,11.555542-8,17.666626-8,17.666626,0,0,2.111145-1.333313,4.111145-2.666626-1.222229,12.444458-10.888916,14.666626-10.888916,14.666626,0,0,1.666687,2,7.888916.444458-1,3.777771-3.9630127,6.2592773-13.5185547,12.0370483,9.4074097,1.4074097,14.222229-2.5925903,14.222229-2.5925903,0,0-3.777771,15.111084-15.8518677,14.5925903,2.2963257,5.4815063,6.5925903,5.0370483,6.5925903,5.0370483,0,0-.0740356,2.5184937-5.4074097,7.4074097,7.7037354-.2963257,8.666687-6.444458,8.666687-6.444458l-.0740967,4.7407227,4.5925903-3.4074097c-3.4074097,14-14.3703613,25.555603-32.0740356,23.0370483,7.1851807,6.888916,14.222229,3.9259644,14.222229,3.9259644,0,0-1.111145,2.0740356-3.2592773,4,4-1.2592773,7.1851807-3.9259644,7.1851807-3.9259644l-.888855,5.4074097,8.444397-5.1851807-.7407227,3.4074097s3.4074097-2.666687,6.0740967-4.5925903c-6.5185547,13.333313-19.4074097,26.3703613-37.4815063,28.2963257,1.9259033,10.8147583,14.0740967,8.444397,14.0740967,8.444397,0,0-.888916,2.0740967-4.888916,2.9629517,6.8148193,4.5926514,11.7037354,0,11.7037354,0,0,0-1.1851807,4.444458-3.7037354,6.9630127,5.0370483.2962646,8.5925903-5.4815063,8.5925903-5.4815063l-1.4465332,11.4280396,7.7428589-5.3909912c-2.333374,6.111084-12.444458,15-20.555603,15.444458-8.111084.444397-11.333313,1.444397-21.444397-7,0,0,3.555542,4.777771,7.777771,11.111084,4.222229,6.333313,10.666626,7.222229,10.666626,7.222229,0,0-3.666626,1.222229-8.444397-.444458,6.444397,7.444458,14.888855,2,14.888855,2,0,0-.555542,1.333374-1.777771,4.777771,4.666687-1.888855,11.222229-5.888855,11.222229-5.888855,0,0,.333313,2.222229-4,6.666626,3-1.333313,12.777771-8.777771,12.777771-8.777771-9.333313,23.333374-35,30.888916-48,26.2592773,2.666687,9.4074097,7.1851807,14.2963257,14.666687,13.9259033,0,0-.0740967,1.333374.444458,2.9630127,2.888855-2.2963257,6.7407227-3.4074097,6.7407227-3.4074097,0,0-.0740967,2.888855-3.111145,6.9629517,6.0740967-3.0370483,11.4074097-8.9629517,11.4074097-8.9629517,0,0-.3703613,2.0740356-3.777771,7.8518066,7.4815063-3.6295776,15.2592773-12.4814453,15.2592773-12.4814453,0,0-.9629517,3.8148193-4.0740967,10.1851807,6.222229-4.444458,10.444458-10.1851807,10.444458-10.1851807-2.222229,10.777771-27.222229,40.666626-59.444458,41.222229,7.666687,3,16.777771,2,16.777771,2,0,0-.888855,1.111084-5.666626,5.111084,6.111084-1,9.555542-4.555542,9.555542-4.555542l-1.777771,5.777771,9.6481323-6.444458s-.0925903,2.444458-3.8703613,5.555542c4.333313.888916,6.555542-2.555542,12.222229-6,.777771,3-5.333313,8.888916-5.333313,8.888916,0,0,7.666626-2.777771,14.777771-8.222229-8.666687,12.666687-24.5,18.333313-34.611145,14.666687l1.611145,4.222229s-1.555603-.666687-2.888916,0c4.111145,6.222229,11.888916,6.555542,11.888916,6.555542,0,0-5.666687,1.666687-10.111145-1.333313,4.444458,7,13.222229,4.555542,13.222229,4.555542,0,0-.555542,1.111084-3,2.555542,4.555542.444458,15.666687-3.111084,15.666687-3.111084,0,0-5.222229,3.888855-11,8.888855,10.222229,3.444458,14.444458-2.666687,19.666626-2.222229-3.333313,9.444458-15.777771,21.777771-53.444397,27.777771,8.111084,6.333374,23.111084,6.111145,23.111084,6.111145,0,0-4.111084,1.333313-10.111084,2.555542,14.888855,2,23-3.7036743,23-3.7036743,0,0-2.111145,4.5925903-17.333374,9.0369873,8.333374,3.444458,19,1,19,1,0,0-1,1.666687-3.555542,3.222229,6.777771-1,14.555542-7.277771,14.555542-7.277771,0,0-1.055542,2.611145-5.777771,6.5,9.055542-.388855,16-9.555542,16-9.555542,0,0-1.111084,6-13.444458,13.444458,15.444458-1.111145,24.9630127-16.3703613,24.9630127-16.3703613l-.5710449,58.9404907c-1.2090454-2.5354004-3.076416-6.1273804-5.7993774-10.5701294,1.333374,3.111084,4.0740967,9.0369873,1.9259644,13.7036743-4.666687-8.5184937-8.444458-11.4814453-8.444458-11.4814453,0,0,3.333313,3.4814453,3.1851807,11.4074097-1.333313-3.555603-6.2962646-9.0370483-6.2962646-9.0370483,0,0,2.3703613,4.9629517,1.333313,9.4814453-.5184937-2.1481323-2.5925903-6.5925903-6.2963257-10.0740356,3.555603,5.0369873,2.888916,10.444397,2.888916,10.444397,0,0-1.555542-8.0740356-9.333313-11.8518066,6.666626,6.222229,4.222229,11.0370483,4.222229,11.0370483,0,0-1.6296387-4.5185547-6.1481934-7.4815063,2.222229,3.777771,1.2592773,7.3518677,1.2592773,7.3518677,0,0-1.111084-2.888916-4.611084-6.222229,1.888855,3.611084,1,7.5,1,7.5,0,0-2.166687-4.333374-6.722229-9.055542,1.833313,4.111084,2.111084,8.611084,2.111084,8.611084,0,0-2.833313-4.888916-5.833313-8,1.444458,3.722229,1.333313,7.833313,1.333313,7.833313,0,0-3.333313-8.111084-6.555542-14.944397,1.388855,5.111084,2.388855,14,2.388855,14l-5.833313-9.722229.5,9.777771s-3.0733032-3.6394043-5.4953613-8.2954712c1.5610962-2.6021729,3.925415-4.8275757,5.6065063-5.5379028-1.6950073.2748413-4.0554199,1.5767822-6.675354,3.2970581-.1304932-.3011475-.2598877-.6030273-.380249-.9081421-.0612183.4197998-.105835.8258057-.1290894,1.2417603-1.8098755,1.2097778-3.7297363,2.5987549-5.6351318,3.9799194l1.8938599-9.0549927-5.6500244,11.7495728c-.5966187.4193726-1.1863403.8292847-1.7573853,1.2133789.8148193-4,4.666687-9.4074097,4.666687-9.4074097,0,0-1.4815063-3.1851807-.5185547-7.9259033-1.333313,1.0369873-3.0369873,3.8518066-3.111084,7.4073486-.0740967,3.555603-4.5184937,8.9630127-4.5184937,8.9630127,0,0,2.888855-16.3703613,2.888855-16.888916,0-.5184937-2,3.4074097-6.888855,14.8148193.0740356-3.6296387,2-16,2-16l-4.9630127,12.2963257s.0740967-8,0-14.444458c-2.0740356,5.111084-3.1851807,18.5925903-3.1851807,18.5925903,0,0,1.1851807-12.9629517-7.9259033-21.111145,5.0370483,9.4815063,4.1481323,19.2592773,4.1481323,19.2592773,0,0-1.777771-11.8518677-9.555542-23.555542,4.444458,14.3703613,2.9629517,26.0740356,2.9629517,26.0740356,0,0-2.5925903-17.1851807-13.4074097-25.555542,8.888916,16.3703613,6.9629517,26.3703613,6.9629517,26.3703613,0,0-3.333313-15.777771-19.4814453-25.0369873,14.888855,16.7407227,11.7036743,26.0740356,11.7036743,26.0740356,0,0-5-16.555542-16.111084-23.111084,9,9.888855,9.555542,22.222229,9.555542,22.222229,0,0-4.444458-11.555603-15.222229-21,8.333374,8.111084,10.555542,21.666626,10.555542,21.666626,0,0-3.222168-7.555542-11.555542-15.111084,5.222229,7.888855,6.666687,16.111084,6.666687,16.111084l-11.2179565-18.9732056,6.7734985,18.1954346-8.666687-12.888855,6.333374,16.333313-9.111145-17.444458,5.777771,17.444458s-4.222168-5.888916-7.555542-11c2.777771-21.222229-6.777771-21.222229-6.777771-21.222229,0,0,8.888916,14.222229-2.555542,25.555542,4.888855-16.333313-1.222229-22.111084-1.222229-22.111084,0,0,3.222229,10-5.8253784,16.222229,3.8412476-8.555542-.0635376-18.111145-.0635376-18.111145,0,0,.777832,2.111145-3.111084,13,1.333313-4.111084-1.333313-13.111084-1.333313-13.111084,0,0,.8856201,5.7824097-1.5737915,11.7761841,1.2503052-3.8045044,1.3123169-9.3753662-3.9818115-13.9984131,1.555603,7.222229-1.444397,12.333313-1.444397,12.333313,0,0,.105957-9.777771-6.333374-18.333313,3.222229,12,1.111145,21.444458,1.111145,21.444458l-6-19.777771,1.1380005,8.111084s-2.3602295-7.222229-7.5824585-9.555542c8.444458,13.444458,7.555542,27.111084,7.555542,27.111084,0,0-1.333313-15.666626-16.222229-29,5.222229,8.333374,11.111145,20.222229,9.888916,29-5.888916-16.222229-16.555542-29.333313-16.555542-29.333313,0,0,5,13.888916,8.111084,27.333313-5.777771-8.111084-5.666687-18.777771-16.888855-28.333313,6.666626,8.555542,3.777771,16.777771,3.777771,16.777771,0,0,0-11.222229-11.666687-19.888855,6,12.222168,1.111084,20.333313,1.111084,20.333313,0,0,.666687-14.888916-11.222168-22.555542,8.888855,14.777771,4.111084,21,4.111084,21,0,0,.222229-8.777771-6.888916-18.666687.888916,5.333313-1.222168,8.333313-1.222168,8.333313.444397-4.777771-2.555603-15.222229-2.555603-15.222229l-2.2235107,63.3666382,236.8901978.4111938.6478882-5.5610962,16.4631958,2.8765259v5.2771606l243.6296387-3.111145ZM568.8611145,585.5774231c-1.277771,2.722229-5.833313,3.944458-5.833313,3.944458l5.4445801-8.4115601c1.2111816,1.7221069.9798584,3.2077637.3887329,4.4671021ZM567.5083313,579.9933167l-7.8139038,8.3063354s-.6487427-3.6622925,5.0338745-10.4037476c1.1849365.7313232,2.0968628,1.430603,2.7800293,2.0974121ZM557.2053528,574.3309631c1.9217529.7424316,3.5604248,1.4584961,4.9483643,2.1481323-2.5540771,2.3686523-3.7926025,5.2650146-3.7926025,5.2650146l-1-2.777771-3,9.666626s-1.7789917-5.4863892,2.8442383-14.302002ZM431.8122864,581.6044006c.4817505,1.7852783,1.3349609,4.1554565,2.7710571,7.6397095-3.5725098-1.6842041-3.8707275-4.7044067-2.7710571-7.6397095Z"/>
        <path class="cls-3" d="M475.4722595,362.6885681l.0349121-.2756958-.1831055.1275024.1481934.1481934Z"/>
      </g>
      <g>
        <ellipse class="cls-4" cx="420.027788" cy="255.6144669" rx=".7777778" ry="1.1481481"/>
        <circle class="cls-4" cx="458.7685287" cy="243.9107632" r="1.0740741"/>
        <circle class="cls-4" cx="456.2129731" cy="232.6144669" r=".8148148"/>
        <path class="cls-4" d="M434.7314917,228.1700225c1.6296296-1.4814815,2.3703704,0,2.3703704,0,0,0,1.6296296-1.9259259,5.1111111,1.037037-4.5925926-5.2592593-6.962963-3.9259259-7.4814815-1.037037Z"/>
        <path class="cls-4" d="M435.8426028,253.5033558s2.962963-2.962963,6.3703704-1.1111111c-5.4074074-3.1111111-7.2592593-1.1111111-6.3703704,1.1111111Z"/>
        <path class="cls-4" d="M481.2500102,226.1700225c.9259259-1.7037037,2.962963-1.5925926,2.9259259-.7407407-1.4814815-.1481481-1.9259259-.0740741-2.9259259.7407407Z"/>
        <path class="cls-4" d="M514.5833435,224.5218743c3-1,5,1.3333333,5.8333333,4.3888889,2.9444444-2.8888889,4.4444444-3.5555556,4.4444444-3.5555556,0,0-2.6111111-.1666667-4.1111111,2-2.1111111-4.0555556-4.9444444-5.8333333-6.1666667-2.8333333Z"/>
        <path class="cls-4" d="M519.4166768,240.5774299c1.3888889,1.9444444,2.6666667,1.6666667,2.6666667,1.6666667,0,0,1,.6248285,2.7777778-.8264746-1.4444444,1.3820302-3.2777778,2.2153635-3.2777778,2.2153635l-.6111111-.9444444s-1.9444444-.3888889-1.5555556-2.1111111Z"/>
        <path class="cls-4" d="M540.5833435,248.9107632c2.4444444-2.2222222,3.3888889-1.2222222,3.3888889-1.2222222,1.1111111-.8333333,2.6666667.0555556,3.1111111,1.2222222-1.6666667-3.5555556-3.25-2.2777778-3.25-2.2777778,0,0-1.6944444-.6111111-3.25,2.2777778Z"/>
        <path class="cls-4" d="M552.7500102,237.5218743c1.1111111,1.9444444,2.4444444,1.3888889,2.6666667,3.0555556.7777778-1.6111111,2.1666667-1.5,2.2777778-3.0555556-1.5,1.4444444-2.1666667,1.5277778-2.1666667,1.5277778,0,0-1.4444444-.6944444-2.7777778-1.5277778Z"/>
        <path class="cls-4" d="M571.9166768,251.188541c3.3888889-3.2777778,6.1666667-2.1111111,6.5-1.3888889.5-.5555556,1.0555556-.8067264,1.0555556-.8067264,1.4444444,1.0845042,3.8333333,3.3067264,3.8333333,3.3067264-1.3333333-4.5-4.3888889-4.0555556-4.3888889-4.0555556-3.7777778-1.5-6.0555556.2222222-7,2.9444444Z"/>
      </g>
    </g>
  </g>
  <g>
    <g>
      <path class="cls-6" d="M566.3733826,179.688324l-1.0576172-.4160156c-21.0546875-8.2763672-43.3076172-12.4726562-66.1396484-12.4726562s-45.0844727,4.1962891-66.1391602,12.4726562l-1.0581055.4160156h-194.4326172v434.8876953l261.5078125,10.6748047.1220703.0058594,261.6298828-10.6806641V179.688324h-194.4326172ZM754.8059998,204.1463318c-5.7874756-5.0959473-11.1453857-10.1830444-10.9550781-13.8857422.0760498-1.4720459,1.1352539-3.0077515,3.1377563-4.5722656h7.8173218v18.4580078ZM251.3639221,185.688324c2.0023804,1.5645142,3.0622559,3.1002197,3.1378784,4.5722656.1903076,3.7028809-5.1677856,8.7902222-10.9555664,13.8865967v-18.4588623h7.817688ZM499.1761169,619.250824l-255.6298828-10.4345703V212.129303c.6264648-.5501709,1.2578735-1.109436,1.8754883-1.6484985,8.2822266-7.2304688,15.4350586-13.4746094,15.0722656-20.5283203-.0760498-1.4771729-.5074463-2.8983765-1.2514648-4.2641602h173.8740234l2.1157227-.8320312c20.3520508-8,41.8662109-12.0566406,63.9438477-12.0566406,22.0771484,0,43.5917969,4.0566406,63.9433594,12.0561523l2.1152344.8325195h173.8756714c-.7439575,1.3657837-1.175415,2.7869873-1.2516479,4.2641602-.3623047,7.0537109,6.7900391,13.2978516,15.0722656,20.5283203.6171875.5389404,1.2485352,1.0980835,1.875,1.6480713v396.6873779l-255.6298828,10.4345703Z"/>
      <path class="cls-6" d="M750.1578064,195.6885681c1.6875,0,3.055542-1.368042,3.055542-3.055603,0-1.6875-1.368042-3.055542-3.055542-3.055542-1.687561,0-3.055603,1.368042-3.055603,3.055542,0,1.687561,1.368042,3.055603,3.055603,3.055603Z"/>
      <path class="cls-6" d="M248.1944275,195.6885681c1.687561,0,3.055603-1.368042,3.055603-3.055603,0-1.6875-1.368042-3.055542-3.055603-3.055542-1.6875,0-3.055542,1.368042-3.055542,3.055542,0,1.687561,1.368042,3.055603,3.055542,3.055603Z"/>
    </g>
    <path class="cls-3" d="M499.1761169,636.7654724l-.2216797-.0097656-276.4267578-11.1318359V189.0218201c0-10.9975586,8.9467773-19.9443359,19.9443359-19.9443359h187.3359375c22.1118164-8.5532227,45.4438477-12.8891602,69.3681641-12.8891602,23.9238281,0,47.2558594,4.3359375,69.3681641,12.8891602h187.3349609c10.9970703,0,19.9443359,8.9467773,19.9443359,19.9443359v436.6020508l-276.6474609,11.1416016ZM233.5276794,615.0574646l265.6484375,10.6982422,265.6474609-10.6982422V189.0218201c0-4.9321289-4.0126953-8.9443359-8.9443359-8.9443359h-189.4111328l-.9697266-.3813477c-21.1152344-8.2993164-43.4287109-12.5078125-66.3222656-12.5078125s-45.2075195,4.2084961-66.3217773,12.5078125l-.9702148.3813477h-189.4121094c-4.9321289,0-8.9443359,4.012207-8.9443359,8.9443359v426.0356445Z"/>
    <path class="cls-3" d="M499.1761169,615.7488708l-.2216797-.0097656-255.4267578-10.2861328V233.9109802c0-24.1699219,19.6635742-43.8334961,43.8334961-43.8334961h146.4838867c20.7382812-8.5537109,42.7114258-12.8891602,65.3310547-12.8891602,22.6191406,0,44.5917969,4.3354492,65.3310547,12.8891602h146.4833984c24.1699219,0,43.8330078,19.6635742,43.8330078,43.8334961v371.5419922l-255.6474609,10.2958984ZM254.5276794,594.8865662l244.6484375,9.8525391,244.6474609-9.8525391V233.9109802c0-18.1044922-14.7285156-32.8334961-32.8330078-32.8334961h-148.6904297l-1.0214844-.4291992c-19.6845703-8.2675781-40.5791016-12.4599609-62.1025391-12.4599609s-42.4179688,4.1923828-62.1025391,12.4599609l-1.0219727.4291992h-148.6904297c-18.1044922,0-32.8334961,14.7290039-32.8334961,32.8334961v360.9755859Z"/>
  </g>
  <path class="cls-9" d="M835.8148499,593.3551941H164.1852112c-3.7381592,0-6.7685547,3.0303955-6.7685547,6.7685547v143.4629517c0,3.7381592,3.0303955,6.7684937,6.7685547,6.7684937h58.8425903l264.1180292,91.2974854c8.3277105,2.8786621,17.380689,2.8786621,25.7083868,0l264.118042-91.2974854h58.8425903c3.7380981,0,6.7684937-3.0303345,6.7684937-6.7684937v-143.4629517c0-3.7381592-3.0303955-6.7685547-6.7684937-6.7685547Z"/>
  <g>
    <path class="cls-6" d="M282.5034281,729.9256287c-4.6679688,3.6796875-10.7470703,5.5214844-18.2402344,5.5214844s-13.4091797-1.7099546-17.7470703-5.1269531c-4.3383789-3.4169922-6.5073242-8.4111328-6.5073242-14.9863281v-91.1015625c0-6.5722656,2.2338867-11.6992188,6.7045898-15.3808594,4.4672852-3.6796875,10.4819336-5.5214844,18.0429688-5.5214844,7.5576172,0,13.5722656,1.6757812,18.0429688,5.0283203,4.4672852,3.3515625,6.7041016,7.7236328,6.7041016,13.1132812v24.4511719c0,2.3662109-1.7099609,4.0117188-5.1269531,4.9296875-1.8422852.5273438-3.6816406.7890625-5.5209961.7890625-1.8427734,0-3.6821289-.1972656-5.5214844-.5917969.3945312-3.1552734.5913086-6.5068359.5913086-10.0566406v-16.7607422c0-2.4960938-.8564453-4.4375-2.5634766-5.8173828-1.7099609-1.3808594-3.9433594-2.0703125-6.7041016-2.0703125s-4.9638672.6894531-6.605957,2.0703125c-1.6455078,1.3798828-2.4648438,3.3212891-2.4648438,5.8173828v90.3125c0,2.3662109.8193359,4.2734375,2.4648438,5.71875,1.6420898,1.4482422,3.8452148,2.1689453,6.605957,2.1689453s4.9941406-.6894531,6.7041016-2.0703058c1.7070312-1.3798895,2.5634766-3.3183661,2.5634766-5.8173895v-4.3378906l-.5913086-10.0566406c1.8393555-.3945312,3.6787109-.5917969,5.5214844-.5917969,1.8393555,0,3.6787109.265625,5.5209961.7890625,3.4169922.9208984,5.1269531,2.5634766,5.1269531,4.9296875v10.8457031c0,5.5214844-2.3354492,10.1240234-7,13.8027344Z"/>
    <path class="cls-6" d="M301.9243266,731.1092224v-106.8769531c0-6.5722656,2.2338867-11.6992188,6.7045898-15.3808594,4.4677734-3.6796875,10.5805664-5.5214844,18.3388672-5.5214844,7.7548828,0,13.7695312,1.7099609,18.0429688,5.1269531,4.2705078,3.4199219,6.4086914,8.4140625,6.4086914,14.9863281v93.2714844c0,2.7597656.5576172,4.7011719,1.6762695,5.8164062,1.1152344,1.1191406,3.0561523,1.6767578,5.8168945,1.6767578,0,7.4931641-4.2089844,11.2392578-12.6201172,11.2392578-6.9697266,0-10.4511719-4.5351562-10.4511719-13.6054688v-37.6640625h-18.3388672v30.7617188l.7890625,18.5361328c-4.4707031.65625-8.8735352.9863281-13.2119141.9863281-2.1044922,0-3.1552734-1.1162109-3.1552734-3.3525391ZM317.5024516,624.2322693v46.9306641h18.3388672v-46.9306641c0-2.4960938-.8564453-4.4375-2.5634766-5.8173828-1.7099609-1.3808594-3.9438477-2.0703125-6.7045898-2.0703125s-4.9633789.6894531-6.605957,2.0703125c-1.6450195,1.3798828-2.4648438,3.3212891-2.4648438,5.8173828Z"/>
    <path class="cls-6" d="M365.4189555,650.8523865v-26.6201172c0-6.5722656,2.2338867-11.6992188,6.7045898-15.3808594,4.4677734-3.6796875,10.4819336-5.5214844,18.0429688-5.5214844,7.5581055,0,13.5722656,1.6757812,18.0429688,5.0283203,4.4677734,3.3515625,6.7045898,7.7236328,6.7045898,13.1132812v24.4511719c0,2.3662109-1.7099609,4.0117188-5.1269531,4.9296875-1.8427734.5273438-3.6821289.7890625-5.5214844.7890625-1.8422852,0-3.6821289-.1972656-5.5214844-.5917969.3945312-3.1552734.5917969-6.5068359.5917969-10.0566406v-16.7607422c0-2.4960938-.8564453-4.4375-2.5634766-5.8173828-1.7099609-1.3808594-3.9438477-2.0703125-6.7045898-2.0703125s-4.9638672.6894531-6.605957,2.0703125c-1.6450195,1.3798828-2.4648438,3.3212891-2.4648438,5.8173828v23.0712891c0,4.6025391,1.5097656,7.8222656,4.5356445,9.6621094l20.9018555,13.4091797c5.9160156,3.6816406,8.8735352,9.3349609,8.8735352,16.9580078v27.2119141c0,6.5751953-2.3012695,11.7021484-6.9013672,15.3808594-4.6035156,3.6796875-10.6821289,5.5214844-18.2402344,5.5214844-7.5610352,0-13.6401367-1.6757812-18.2402344-5.0283203-4.6030273-3.3525391-6.9013672-7.7207031-6.9013672-13.1132812v-24.4511719c0-2.3662109,1.706543-4.0087891,5.1269531-4.9296875,1.8393555-.5244141,3.6787109-.7890625,5.5209961-.7890625,1.8393555,0,3.6791992.1972656,5.5214844.5917969-.3945312,3.1552734-.5917969,6.5068359-.5917969,10.0566406v16.7607422c0,2.3662109.918457,4.2734375,2.7607422,5.71875,1.8393555,1.4482422,4.1411133,2.1689453,6.9018555,2.1689453s5.0283203-.7207031,6.8032227-2.1689453c1.7744141-1.4453125,2.6616211-3.3525391,2.6616211-5.71875v-22.2822266c0-5.1269531-1.7744141-8.8056641-5.3237305-11.0429688l-20.9023438-13.6054688c-5.3920898-3.4169922-8.0849609-9.0029297-8.0849609-16.7617188Z"/>
    <path class="cls-6" d="M461.6474711,605.3016052c4.7324219,0,8.2817383-.3261719,10.6484375-.9863281,1.050293,3.6826172,1.5771484,7.2958984,1.5771484,10.8457031,0,2.1044922-.9208984,3.1552734-2.7607422,3.1552734h-15.3808594v96.6230469l.7890625,18.5361328c-4.4707031.65625-8.8735352.9863281-13.2119141.9863281-2.1044922,0-3.1547852-1.1162109-3.1547852-3.3525391v-112.7929688h-5.9160156c-4.7324219,0-8.2817383.3291016-10.6479492.9853516-1.0541992-3.6787109-1.5776367-7.2958984-1.5776367-10.8447266,0-2.1015625.9179688-3.1552734,2.7607422-3.1552734h36.8745117Z"/>
    <path class="cls-6" d="M524.451182,729.9256287c-4.6679688,3.6796875-10.7470703,5.5214844-18.2402344,5.5214844s-13.4091797-1.7099546-17.7470703-5.1269531c-4.3378906-3.4169922-6.5078125-8.4111328-6.5078125-14.9863281v-91.1015625c0-6.5722656,2.234375-11.6992188,6.7050781-15.3808594,4.4677734-3.6796875,10.4814453-5.5214844,18.0429688-5.5214844,7.5576172,0,13.5722656,1.6757812,18.0429688,5.0283203,4.4677734,3.3515625,6.7041016,7.7236328,6.7041016,13.1132812v24.4511719c0,2.3662109-1.7099609,4.0117188-5.1269531,4.9296875-1.8427734.5273438-3.6816406.7890625-5.5214844.7890625-1.8417969,0-3.6816406-.1972656-5.5214844-.5917969.3945312-3.1552734.5917969-6.5068359.5917969-10.0566406v-16.7607422c0-2.4960938-.8564453-4.4375-2.5634766-5.8173828-1.7099609-1.3808594-3.9433594-2.0703125-6.7041016-2.0703125s-4.9638672.6894531-6.6064453,2.0703125c-1.6445312,1.3798828-2.4648438,3.3212891-2.4648438,5.8173828v90.3125c0,2.3662109.8203125,4.2734375,2.4648438,5.71875,1.6425781,1.4482422,3.8457031,2.1689453,6.6064453,2.1689453s4.9941406-.6894531,6.7041016-2.0703058c1.7070312-1.3798895,2.5634766-3.3183661,2.5634766-5.8173895v-4.3378906l-.5917969-10.0566406c1.8398438-.3945312,3.6796875-.5917969,5.5214844-.5917969,1.8398438,0,3.6787109.265625,5.5214844.7890625,3.4169922.9208984,5.1269531,2.5634766,5.1269531,4.9296875v10.8457031c0,5.5214844-2.3349609,10.1240234-7,13.8027344Z"/>
    <path class="cls-6" d="M543.8720805,731.1092224v-106.8769531c0-6.5722656,2.234375-11.6992188,6.7050781-15.3808594,4.4667969-3.6796875,10.5800781-5.5214844,18.3378906-5.5214844,7.7558594,0,13.7695312,1.7099609,18.0429688,5.1269531,4.2705078,3.4199219,6.4091797,8.4140625,6.4091797,14.9863281v93.2714844c0,2.7597656.5576172,4.7011719,1.6757812,5.8164062,1.1152344,1.1191406,3.0566406,1.6767578,5.8173828,1.6767578,0,7.4931641-4.2089844,11.2392578-12.6201172,11.2392578-6.9697266,0-10.4511719-4.5351562-10.4511719-13.6054688v-37.6640625h-18.3388672v30.7617188l.7890625,18.5361328c-4.4707031.65625-8.8740234.9863281-13.2119141.9863281-2.1044922,0-3.1552734-1.1162109-3.1552734-3.3525391ZM559.4502055,624.2322693v46.9306641h18.3388672v-46.9306641c0-2.4960938-.8564453-4.4375-2.5634766-5.8173828-1.7099609-1.3808594-3.9433594-2.0703125-6.7041016-2.0703125s-4.9638672.6894531-6.6064453,2.0703125c-1.6455078,1.3798828-2.4648438,3.3212891-2.4648438,5.8173828Z"/>
    <path class="cls-6" d="M639.7060649,605.3016052c13.0146484,0,19.5214844,6.4423828,19.5214844,19.3242188v87.9472656c0,6.5751953-2.2675781,11.7021484-6.8027344,15.3808594-4.5351562,3.6816406-10.6816406,5.5214844-18.4375,5.5214844h-24.2539062v-109.046875c0-2.8896484-.5273438-4.9599609-1.578125-6.2109375-1.0537109-1.2480469-2.9580078-1.8730469-5.7177734-1.8730469-.1328125-3.4169922.7880859-6.1132812,2.7597656-8.0849609,1.9726562-1.9716797,5.1582031-2.9580078,9.5644531-2.9580078,4.4023438,0,7.4589844,2.1689453,9.1689453,6.5068359,5.1269531-4.3378906,10.3837891-6.5068359,15.7753906-6.5068359ZM635.9589945,618.3162537c-3.5488281,0-7.0986328,1.7744141-10.6474609,5.3242188v96.8203125h9.0703125c2.7607422,0,4.9941406-.6904297,6.7041016-2.0703125,1.7070312-1.3808594,2.5634766-3.3183594,2.5634766-5.8173828v-86.7636719c0-4.9941406-2.5634766-7.4931641-7.6904297-7.4931641Z"/>
    <path class="cls-6" d="M673.0302836,731.1092224v-107.2714844l-.7890625-18.5361328c4.4677734-.65625,8.8740234-.9863281,13.2119141-.9863281,2.1015625,0,3.1552734,1.1191406,3.1552734,3.3525391v107.2714844l.7890625,18.5361328c-4.4707031.65625-8.8740234.9863281-13.2119141.9863281-2.1044922,0-3.1552734-1.1162109-3.1552734-3.3525391Z"/>
    <path class="cls-6" d="M703.0029399,731.1092224v-106.8769531c0-6.5722656,2.234375-11.6992188,6.7050781-15.3808594,4.4667969-3.6796875,10.5800781-5.5214844,18.3378906-5.5214844,7.7558594,0,13.7695312,1.7099609,18.0429688,5.1269531,4.2705078,3.4199219,6.4091797,8.4140625,6.4091797,14.9863281v93.2714844c0,2.7597656.5576172,4.7011719,1.6757812,5.8164062,1.1152344,1.1191406,3.0566406,1.6767578,5.8173828,1.6767578,0,7.4931641-4.2089844,11.2392578-12.6201172,11.2392578-6.9697266,0-10.4511719-4.5351562-10.4511719-13.6054688v-37.6640625h-18.3388672v30.7617188l.7890625,18.5361328c-4.4707031.65625-8.8740234.9863281-13.2119141.9863281-2.1044922,0-3.1552734-1.1162109-3.1552734-3.3525391ZM718.5810649,624.2322693v46.9306641h18.3388672v-46.9306641c0-2.4960938-.8564453-4.4375-2.5634766-5.8173828-1.7099609-1.3808594-3.9433594-2.0703125-6.7041016-2.0703125s-4.9638672.6894531-6.6064453,2.0703125c-1.6455078,1.3798828-2.4648438,3.3212891-2.4648438,5.8173828Z"/>
  </g>
  <g>
    <path class="cls-6" d="M397.9602153,781.8562927v-33.8671875c0-2.4433594.8305664-4.3486328,2.4926758-5.7177734,1.6606445-1.3671875,3.9331055-2.0527344,6.8173828-2.0527344,2.8828125,0,5.1186523.6357422,6.7075195,1.90625,1.5874023,1.2714844,2.3823242,3.1279297,2.3823242,5.5712891v33.8671875c0,2.4443359-.8432617,4.3496094-2.5292969,5.7177734-1.6860352,1.3671875-3.9707031,2.0527344-6.8540039,2.0527344-2.8837891,0-5.1074219-.6357422-6.6708984-1.90625-1.5644531-1.2705078-2.3457031-3.1269531-2.3457031-5.5712891ZM403.7517192,747.9891052v33.5742188c0,.8798828.3046875,1.5888672.9160156,2.1259766.6103516.5380859,1.4296875.8056641,2.4560547.8056641,1.0258789,0,1.8564453-.2558594,2.4921875-.7695312.6342773-.5126953.953125-1.2333984.953125-2.1621094v-33.5742188c0-.9277344-.3188477-1.6494141-.953125-2.1621094-.6357422-.5136719-1.4663086-.7705078-2.4921875-.7705078-1.0263672,0-1.8457031.2568359-2.4560547.7705078-.6113281.5126953-.9160156,1.234375-.9160156,2.1621094Z"/>
    <path class="cls-6" d="M434.3923442,746.962738c0-2.3935547-.171875-4.3984375-.5131836-6.0107422,1.6606445-.1953125,3.3466797-.2929688,5.0581055-.2929688.8300781,0,1.2460938.3662109,1.2460938,1.0996094v40.6103516c0,1.0263672.1948242,1.7597656.5864258,2.1992188.390625.4404297,1.0996094.6601562,2.1259766.6601562.0478516,1.2714844-.2817383,2.2724609-.9897461,3.0058594-.7089844.7324219-1.7226562,1.0996094-3.0419922,1.0996094-2.0527344,0-3.3720703-.7578125-3.9584961-2.2724609-1.3691406,1.5146484-3.2509766,2.2724609-5.6445312,2.2724609-4.9848633,0-7.4775391-2.3457031-7.4775391-7.0380859v-35.1132812c0-1.0263672-.2084961-1.7460938-.6230469-2.1621094-.4155273-.4150391-1.1362305-.6230469-2.1625977-.6230469,0-2.7861328,1.5634766-4.1787109,4.6918945-4.1787109,2.5898438,0,3.8852539,1.6865234,3.8852539,5.0585938v36.5791016c0,1.7597656.8911133,2.6386719,2.675293,2.6386719,1.7836914,0,3.1635742-.8544922,4.1420898-2.5654297v-34.9667969Z"/>
    <path class="cls-6" d="M458.5827738,740.9519958c1.7592773,0,3.0786133-.1220703,3.9584961-.3671875.390625,1.3691406.5869141,2.7128906.5869141,4.0322266,0,.7822266-.3427734,1.1728516-1.0263672,1.1728516h-5.7182617v35.9199219l.293457,6.890625c-1.6621094.2441406-3.2988281.3662109-4.9116211.3662109-.7822266,0-1.1728516-.4140625-1.1728516-1.2460938v-41.9306641h-2.1992188c-1.7592773,0-3.0786133.1230469-3.9584961.3662109-.3916016-1.3671875-.5864258-2.7119141-.5864258-4.03125,0-.78125.3413086-1.1728516,1.0263672-1.1728516h13.7080078Z"/>
    <path class="cls-6" d="M476.249766,763.0896912c1.7597656,0,3.0791016-.1210938,3.9589844-.3662109.390625,1.3691406.5859375,2.7119141.5859375,4.0322266,0,.7822266-.3427734,1.1728516-1.0263672,1.1728516h-7.184082v14.4404297c0,1.0263672.2070312,1.7480469.6235352,2.1630859.4140625.4160156,1.1357422.6230469,2.1621094.6230469,0,2.7851562-1.5644531,4.1787109-4.6918945,4.1787109-2.5908203,0-3.8847656-1.6865234-3.8847656-5.0585938v-36.2128906c0-1.0742188-.1962891-1.84375-.5869141-2.3085938-.3916016-.4638672-1.0996094-.6972656-2.1259766-.6972656-.0488281-1.2695312.2939453-2.2724609,1.0263672-3.0048828.7333984-.7333984,1.7832031-1.0996094,3.1523438-1.0996094h9.3100586l3.6660156-.3671875c.3896484,1.3691406.5859375,2.7128906.5859375,4.0322266,0,.7822266-.3427734,1.1728516-1.0263672,1.1728516h-8.2104492v17.2998047h3.6655273Z"/>
    <path class="cls-6" d="M485.4851176,787.7205505v-39.8779297l-.2929688-6.890625c1.6611328-.2441406,3.2988281-.3671875,4.9111328-.3671875.78125,0,1.1738281.4160156,1.1738281,1.2470703v39.8779297l.2929688,6.890625c-1.6621094.2441406-3.2988281.3662109-4.9121094.3662109-.7822266,0-1.1728516-.4140625-1.1728516-1.2460938Z"/>
    <path class="cls-6" d="M509.3103129,740.9519958c1.7587891,0,3.078125-.1220703,3.9580078-.3671875.390625,1.3691406.5869141,2.7128906.5869141,4.0322266,0,.7822266-.3427734,1.1728516-1.0263672,1.1728516h-5.7177734v35.9199219l.2929688,6.890625c-1.6621094.2441406-3.2988281.3662109-4.9111328.3662109-.7832031,0-1.1738281-.4140625-1.1738281-1.2460938v-41.9306641h-2.1982422c-1.7597656,0-3.0791016.1230469-3.9589844.3662109-.3916016-1.3671875-.5859375-2.7119141-.5859375-4.03125,0-.78125.3408203-1.1728516,1.0253906-1.1728516h13.7089844Z"/>
    <path class="cls-6" d="M529.7624613,740.9519958c1.7587891,0,3.078125-.1220703,3.9580078-.3671875.390625,1.3691406.5869141,2.7128906.5869141,4.0322266,0,.7822266-.3427734,1.1728516-1.0263672,1.1728516h-5.7177734v35.9199219l.2929688,6.890625c-1.6621094.2441406-3.2988281.3662109-4.9111328.3662109-.7832031,0-1.1738281-.4140625-1.1738281-1.2460938v-41.9306641h-2.1982422c-1.7597656,0-3.0791016.1230469-3.9589844.3662109-.3916016-1.3671875-.5859375-2.7119141-.5859375-4.03125,0-.78125.3408203-1.1728516,1.0253906-1.1728516h13.7089844Z"/>
    <path class="cls-6" d="M546.8415629,763.8230896c1.7587891,0,3.0791016-.1210938,3.9580078-.3662109.390625,1.3681641.5869141,2.7119141.5869141,4.03125,0,.7822266-.3427734,1.1728516-1.0263672,1.1728516h-4.3251953c-1.0263672,0-1.8447266.2695312-2.4550781.8066406-.6123047.5380859-.9169922,1.2460938-.9169922,2.1259766v9.9697266c0,.9287109.3046875,1.6494141.9169922,2.1621094.6103516.5136719,1.4287109.7695312,2.4550781.7695312s1.8564453-.2558594,2.4921875-.7695312c.6347656-.5126953.953125-1.2333984.953125-2.1621094v-1.8330078l-.2197266-3.7382812c.6835938-.1464844,1.3671875-.2197266,2.0527344-.2197266.6835938,0,1.3671875.0986328,2.0527344.2929688,1.2695312.3427734,1.9052734.953125,1.9052734,1.8330078v4.6914062c0,2.0039062-.8310547,3.6279297-2.4921875,4.8740234-1.6621094,1.2470703-3.8974609,1.8701172-6.7070312,1.8701172-2.8115234,0-5.046875-.6855469-6.7080078-2.0527344-1.6621094-1.3681641-2.4921875-3.2734375-2.4921875-5.7177734v-10.2626953c0-2.1992188.7080078-3.8857422,2.1259766-5.0585938-1.4179688-1.1728516-2.1259766-2.8583984-2.1259766-5.0576172v-13.1953125c0-2.4433594.8300781-4.3486328,2.4921875-5.7177734,1.6611328-1.3671875,3.8730469-2.0527344,6.6347656-2.0527344,2.7597656,0,4.9482422.6230469,6.5605469,1.8691406s2.4189453,2.8720703,2.4189453,4.875v6.1582031c0,.8789062-.6357422,1.4912168-1.90625,1.8320312-.6845703.1962891-1.3681641.2929688-2.0517578.2929688-.6855469,0-1.3691406-.0732422-2.0527344-.2197266.1464844-1.1728516.2197266-2.4189453.2197266-3.7382812v-3.2988281c0-1.9541016-1.0751953-2.9326172-3.2255859-2.9326172-1.0263672,0-1.8320312.2568359-2.4189453.7705078-.5869141.5126953-.8798828,1.234375-.8798828,2.1621094v12.9013672c0,.8798828.28125,1.5888672.8427734,2.1259766.5615234.5390625,1.3076172.8066406,2.2363281.8066406h1.0996094Z"/>
    <path class="cls-6" d="M560.0368754,787.7205505v-39.6582031c0-1.0742188-.1962891-1.84375-.5869141-2.3085938-.3916016-.4638672-1.0996094-.6972656-2.1259766-.6972656-.0488281-1.2695312.2939453-2.2724609,1.0263672-3.0048828.7333984-.7333984,1.90625-1.0996094,3.5185547-1.0996094,1.6132812,0,2.7607422.8066406,3.4453125,2.4189453,1.90625-1.6123047,3.8603516-2.4189453,5.8652344-2.4189453,4.8378906,0,7.2568359,2.3945312,7.2568359,7.1835938v17.0068359c0,3.0791016-1.2958984,5.2783203-3.8847656,6.5976562l1.5390625,9.8232422c.2441406,1.5644531,1.0009766,2.3457031,2.2724609,2.3457031.390625,0,.8544922-.0976562,1.3925781-.2929688.1953125.5859375.2929688,1.2822266.2929688,2.0888672s-.4023438,1.6123047-1.2089844,2.4189453-1.8457031,1.2099609-3.1152344,1.2099609c-2.8847656,0-4.5214844-1.2460938-4.9121094-3.7392578l-2.1259766-12.6816406h-2.8583984v8.796875l.2929688,6.890625c-1.6621094.2441406-3.2988281.3662109-4.9111328.3662109-.7822266,0-1.1728516-.4140625-1.1728516-1.2460938ZM569.7858988,745.7898865c-1.3193359,0-2.6386719.6601562-3.9580078,1.9794922v20.3056641h3.3720703c1.0263672,0,1.8564453-.2568359,2.4921875-.7695312.6347656-.5136719.953125-1.234375.953125-2.1630859v-16.5664062c0-1.8574219-.953125-2.7861328-2.859375-2.7861328Z"/>
    <path class="cls-6" d="M583.4939067,757.8855896v-9.8964844c0-2.4433594.8300781-4.3486328,2.4921875-5.7177734,1.6611328-1.3671875,3.8964844-2.0527344,6.7080078-2.0527344,2.8095703,0,5.0449219.6230469,6.7070312,1.8691406,1.6611328,1.2460938,2.4921875,2.8720703,2.4921875,4.875v9.0898438c0,.8798828-.6357422,1.4912109-1.9052734,1.8330078-.6855469.1953125-1.3691406.2929688-2.0527344.2929688-.6855469,0-1.3691406-.0732422-2.0527344-.2197266.1464844-1.1728516.2197266-2.4189453.2197266-3.7382812v-6.2314453c0-.9277344-.3183594-1.6494141-.953125-2.1621094-.6357422-.5136719-1.4658203-.7705078-2.4921875-.7705078s-1.8447266.2568359-2.4560547.7705078c-.6113281.5126953-.9160156,1.234375-.9160156,2.1621094v8.5771484c0,1.7109375.5615234,2.9082031,1.6865234,3.5917969l7.7705078,4.984375c2.1982422,1.3691406,3.2978516,3.4707031,3.2978516,6.3046875v10.1162109c0,2.4443359-.8554688,4.3496094-2.5654297,5.7177734-1.7109375,1.3671875-3.9707031,2.0527344-6.7802734,2.0527344-2.8115234,0-5.0712891-.6230469-6.78125-1.8701172-1.7109375-1.2460938-2.5654297-2.8701172-2.5654297-4.8740234v-9.0898438c0-.8798828.6347656-1.4902344,1.90625-1.8330078.6835938-.1943359,1.3671875-.2929688,2.0517578-.2929688s1.3681641.0732422,2.0527344.2197266c-.1464844,1.1728516-.2197266,2.4189453-.2197266,3.7382812v6.2314453c0,.8798828.3417969,1.5888672,1.0263672,2.1259766.6835938.5380859,1.5390625.8056641,2.5654297.8056641s1.8691406-.2675781,2.5292969-.8056641c.6601562-.5371094.9892578-1.2460938.9892578-2.1259766v-8.2841797c0-1.9052734-.6591797-3.2734375-1.9785156-4.1044922l-7.7705078-5.0585938c-2.0048828-1.2695312-3.0058594-3.3466797-3.0058594-6.2304688Z"/>
  </g>
  <g>
    <polygon class="cls-1" points="169.7166443 622.9109802 164.7166443 622.9109802 164.7166443 600.6551208 187.6946716 600.6551208 187.6946716 605.6551208 169.7166443 605.6551208 169.7166443 622.9109802"/>
    <polygon class="cls-1" points="835.2835388 622.9109802 830.2835388 622.9109802 830.2835388 605.6551208 812.3059998 605.6551208 812.3059998 600.6551208 835.2835388 600.6551208 835.2835388 622.9109802"/>
    <polygon class="cls-1" points="187.6946716 743.0555115 164.7166443 743.0555115 164.7166443 720.7996521 169.7166443 720.7996521 169.7166443 738.0555115 187.6946716 738.0555115 187.6946716 743.0555115"/>
    <polygon class="cls-1" points="835.2835388 743.0555115 812.3059998 743.0555115 812.3059998 738.0555115 830.2835388 738.0555115 830.2835388 720.7996521 835.2835388 720.7996521 835.2835388 743.0555115"/>
  </g>
</svg>